<svg t="1694248342591" class="icon" viewBox="0 0 1024 1024" version="1.1" xmlns="http://www.w3.org/2000/svg" p-id="31592" width="128" height="128"><path d="M613.01354 795.82824v-19.014314c11.091683-0.396132 21.391103-1.980658 31.690522-5.941972 9.903288-3.961315 19.806576-9.507157 28.125338-16.637525 8.318762-7.130368 15.845261-15.845261 20.994971-25.352417 5.14971-9.507157 8.714894-19.806576 10.29942-30.502128 0.396132-1.188395 0.396132-2.772921 0.792263-3.961315v-3.961316c0-1.188395 0-2.772921 0.396132-3.961315v-1.584526V339.088588l-0.396132-1.980658c-0.396132-2.772921 0-5.545841-0.396131-8.318762-0.396132-2.772921-0.792263-5.14971-1.188395-7.92263-0.792263-2.376789-1.584526-5.14971-1.980658-7.922631-0.792263-2.772921-1.980658-5.14971-2.77292-7.526499-7.922631-20.202708-24.164023-37.632495-43.178337-47.931915-9.507157-5.14971-19.806576-8.318762-30.502128-9.507156l-1.980657-0.396132H410.590329c-11.091683 0.396132-21.391103 1.980658-31.690522 5.941973-9.903288 3.961315-19.806576 9.507157-28.125339 16.637524-8.318762 7.130368-15.845261 15.845261-20.994971 25.352418-5.14971 9.507157-8.714894 19.806576-10.29942 30.502128-0.396132 1.188395-0.396132 2.772921-0.792263 3.961315v3.961315c0 1.188395 0 2.772921-0.396131 3.961315V685.307544l0.396131 1.980657c0.396132 2.772921 0 5.545841 0.396132 8.318762 0.396132 2.772921 0.792263 5.14971 1.188394 7.922631 0.792263 2.376789 1.584526 5.14971 1.980658 7.92263 0.792263 2.772921 1.980658 5.14971 2.772921 7.526499 7.922631 20.202708 24.164023 37.632495 43.178336 47.931915 9.507157 5.14971 19.806576 8.318762 30.502128 9.507157l1.980658 0.396131h212.326499v19.014314H406.232882c-1.584526 0-3.169052 0-4.753578-0.396132h-2.376789l-2.37679-0.396131c-13.07234-1.584526-25.748549-5.545841-37.236363-11.487815-23.37176-12.280077-42.386074-33.67118-52.289362-57.835203-0.792263-3.169052-2.376789-5.941973-3.169052-9.111025l-2.376789-9.507156c-0.396132-3.169052-0.792263-6.338104-1.584527-9.507157-0.396132-3.169052-0.396132-6.734236-0.396131-9.903288l-0.396132-2.376789V340.276983v-3.169053c0-1.584526 0.396132-3.169052 0.396132-4.753578v-4.753578c0.396132-1.584526 0.792263-3.169052 0.792263-4.753579 1.980658-12.676209 5.941973-25.352418 12.280077-36.840232 6.338104-11.487814 15.052998-22.183366 24.956287-30.502127 10.29942-8.714894 21.787234-15.44913 34.067311-19.806577 12.280077-4.753578 24.956286-7.130368 38.424758-7.130367h206.780658c1.584526 0 3.169052 0 4.753578 0.396131h2.376789l2.37679 0.396132c13.07234 1.584526 25.748549 5.545841 37.236363 11.487814 23.37176 12.280077 42.386074 33.67118 52.289362 57.835203 0.792263 3.169052 2.376789 5.941973 3.169052 9.111025l2.376789 9.507157c0.396132 3.169052 0.792263 6.338104 1.584526 9.507157 0.396132 3.169052 0.396132 6.734236 0.396132 9.903288l0.396132 2.376789v347.803482c0 1.584526-0.396132 3.169052-0.396132 4.753578v4.753578c-0.396132 1.584526-0.792263 3.169052-0.792263 4.753579-1.980658 12.676209-5.941973 25.352418-12.280077 36.840232-6.338104 11.487814-15.052998 22.183366-24.956287 30.502127-10.29942 8.714894-21.787234 15.44913-34.067311 19.806577-12.280077 5.14971-25.352418 7.526499-38.424758 7.526499z" fill="#ffffff" p-id="31593"></path><path d="M762.355126 339.088588l-0.396132-3.169052c-0.396132-4.357447-0.396132-8.714894-0.792263-13.072341-0.792263-4.357447-1.584526-8.714894-1.980657-13.07234-1.188395-4.357447-2.376789-8.318762-3.169053-12.676209-1.188395-4.357447-3.169052-8.318762-4.357447-12.280077-13.07234-32.482785-38.424758-60.608124-69.719148-77.245648-15.44913-8.318762-32.482785-13.468472-49.912573-15.845261l-3.169052-0.396132h-3.169052l-6.734236-0.396131-3.169053-0.396132c-1.188395 0-1.980658-0.396132-3.565183 0H410.590329c-35.255706 0.396132-70.11528 13.07234-97.052225 36.444101-13.468472 11.487814-24.956286 25.352418-33.671179 40.801547-8.714894 15.44913-14.260735 32.482785-17.033656 49.516441l-1.188395 6.338104c-0.396132 2.376789 0 4.357447-0.396131 6.734236V684.911412l0.396131 3.169052c0.396132 4.357447 0.396132 8.714894 0.792263 13.072341 0.792263 4.357447 1.584526 8.714894 1.980658 13.07234 1.188395 4.357447 2.376789 8.318762 3.169052 12.676209 1.188395 4.357447 3.169052 8.318762 4.357447 12.280077 13.07234 32.482785 38.424758 60.608124 69.719149 77.245648 15.44913 8.318762 32.482785 13.468472 49.912572 15.845261l3.169053 0.396132h3.169052l6.734236 0.396131 3.169052 0.396132c1.188395 0 1.980658 0.396132 3.565184 0H612.617408c35.255706-0.396132 70.11528-13.07234 97.052224-36.444101 13.468472-11.487814 24.956286-25.352418 33.67118-40.801547 8.714894-15.44913 14.260735-32.482785 17.033656-49.516441l1.188395-6.338104c0.396132-2.376789 0-4.357447 0.396131-6.734236l0.396132-6.734236v-1.584526-346.218956z m-19.014314 14.260735V687.288201l-0.396131 5.941973c0 1.980658 0 3.961315-0.396132 5.941973l-0.792263 5.545841c-2.376789 15.052998-7.130368 29.709865-14.656866 43.178337-7.526499 13.468472-17.429787 25.748549-29.313733 35.651837-23.767892 20.202708-53.873888 31.294391-84.772147 31.690523H405.440619l-5.941973-0.396132h-2.772921l-2.77292-0.396131c-15.052998-1.980658-30.105996-6.338104-43.574468-13.864604-27.333075-14.260735-49.516441-39.217021-61.004256-67.34236-1.188395-3.565184-2.772921-7.130368-3.961315-10.695551-0.792263-3.565184-1.980658-7.526499-2.772921-11.091683-0.396132-3.961315-1.188395-7.526499-1.584526-11.487814-0.396132-3.961315-0.396132-7.526499-0.792263-11.487814l-0.396131-2.772921V340.276983 336.711799l0.396131-5.941973c0-1.980658 0-3.961315 0.396132-5.941973l0.792263-5.545841c2.376789-15.052998 7.130368-29.709865 14.656866-43.178337 7.526499-13.468472 17.429787-25.748549 29.313733-35.651837 23.767892-20.202708 53.873888-31.294391 84.772147-31.690523H617.767118l5.941973 0.396132h2.772921l2.77292 0.396131c15.052998 1.980658 30.105996 6.338104 43.574468 13.864604 27.333075 14.260735 49.516441 39.217021 61.004256 67.34236 1.188395 3.565184 2.772921 7.130368 3.961315 10.695551 0.792263 3.565184 1.980658 7.526499 2.772921 11.091683 0.396132 3.961315 1.188395 7.526499 1.584526 11.487814 0.396132 3.961315 0.396132 7.526499 0.792263 11.487814l0.396131 2.772921v15.052998z" fill="#ffffff" p-id="31594"></path><path d="M800.383752 339.088588l-0.396131-3.961315c-0.396132-5.545841-0.396132-11.091683-1.188395-16.637524l-2.376789-16.241393-3.961315-16.241393c-1.584526-5.14971-3.565184-10.29942-5.545842-15.449129-16.637524-41.197679-47.931915-76.057253-87.148936-96.656093-19.410445-10.29942-41.197679-17.033656-62.984913-19.806577l-3.961315-0.792263c-1.188395 0-2.772921 0-3.961315-0.396131l-8.318762-0.396132c-2.772921 0-5.545841-0.396132-8.318762-0.396131H410.590329c-22.183366 0-44.366731 4.357447-64.965571 11.883946-20.598839 7.922631-40.009284 19.014313-57.04294 33.671179-16.637524 14.260735-31.294391 31.690522-41.989942 51.100968-10.695551 19.410445-17.825919 40.801547-21.391102 62.588781l-1.188395 8.318762c-0.396132 2.772921-0.396132 5.545841-0.396131 8.318762l-0.396132 8.318762c0 1.584526-0.396132 2.772921 0 4.357447V685.307544l0.396132 3.961315c0.396132 5.545841 0.396132 11.091683 1.188394 16.637524l2.376789 16.241393 3.961316 16.241392c1.584526 5.14971 3.565184 10.29942 5.545841 15.44913 16.637524 41.197679 47.931915 76.057253 87.148936 96.656093 19.410445 10.29942 41.197679 17.033656 62.984913 19.806576l3.961315 0.792263c1.188395 0 2.772921 0 3.961316 0.396132l8.318762 0.396131c2.772921 0 5.545841 0.396132 8.318762 0.396132H612.617408c22.183366 0 44.366731-4.357447 64.965571-11.883946 20.598839-7.922631 40.009284-19.014313 57.04294-33.67118 16.637524-14.260735 31.294391-31.690522 41.989942-51.100967 10.695551-19.410445 17.825919-40.801547 21.391102-62.588782l1.188395-8.318762c0.396132-2.772921 0.396132-5.545841 0.396131-8.318762l0.396132-8.318762c0-1.584526 0.396132-2.772921 0-4.357447V343.842166l0.396131-4.753578z m-19.014313 14.260735v334.33501l-0.396131 7.526499c0 2.376789 0 5.14971-0.396132 7.526499l-1.188395 7.526499c-2.772921 19.410445-9.507157 38.82089-19.014313 56.250677-9.507157 17.429787-22.579497 33.275048-37.632495 45.951257-30.502128 26.144681-69.719149 40.801547-109.332302 40.801547H407.817408l-3.565184-0.396131-7.526499-0.396132c-1.188395 0-2.376789 0-3.565183-0.396131l-3.565184-0.792263c-19.806576-2.376789-38.82089-8.318762-56.646809-17.825919-35.255706-18.618182-63.777176-49.912573-78.434042-87.148936-1.584526-4.753578-3.565184-9.111025-5.14971-13.864604l-3.565184-14.260735c-0.792263-4.753578-1.584526-9.903288-2.376789-14.656866-0.792263-4.753578-0.396132-9.903288-0.792263-15.052998l-0.396132-3.565184v-344.634429-3.961316l0.396132-7.526499c0-2.376789 0-5.14971 0.396131-7.526499l1.188395-7.526499c2.772921-19.410445 9.507157-38.82089 19.014313-56.250677 9.507157-17.429787 22.579497-33.275048 37.632496-45.951257 30.502128-26.144681 69.719149-40.801547 109.332301-40.801547H615.390329l3.565184 0.396131 7.526499 0.396132c1.188395 0 2.376789 0 3.565183 0.396131l3.565184 0.792263c19.806576 2.376789 38.82089 8.318762 56.646809 17.825919 35.255706 18.618182 63.777176 49.912573 78.434042 87.148936 1.584526 4.753578 3.565184 9.111025 5.14971 13.864604l3.565184 14.260735c0.792263 4.753578 1.584526 9.903288 2.376789 14.656866 0.792263 4.753578 0.396132 9.903288 0.792263 15.052998l0.396132 3.565184V353.349323z" fill="#ffffff" p-id="31595"></path><path d="M838.412379 339.088588l-0.396131-5.14971c-0.396132-6.734236-0.396132-13.468472-1.188395-19.806576l-3.169052-19.806577-5.14971-19.410445c-1.980658-6.338104-4.357447-12.676209-6.734236-19.014313-19.806576-49.516441-57.835203-91.506383-104.974855-116.066538-23.37176-12.676209-49.516441-20.598839-75.661122-23.767891l-4.753578-0.792263c-1.584526-0.396132-3.169052-0.396132-5.14971-0.396132l-9.903288-0.396131c-3.169052 0-6.734236-0.396132-9.903288-0.396132H410.590329c-26.540812 0-53.081625 5.14971-78.037911 14.260735-24.956286 9.507157-48.328046 22.975629-68.530755 40.405416-20.202708 17.429787-37.632495 38.424758-50.308704 61.796518-13.07234 23.37176-21.787234 49.120309-25.748549 75.264991l-1.584526 9.903288c-0.396132 3.169052-0.396132 6.338104-0.396132 9.903288-0.396132 6.734236-0.792263 13.468472-0.792263 19.806576V685.307544l0.396132 5.149709c0.396132 6.734236 0.396132 13.468472 1.188394 19.806577l3.169053 19.806576 5.14971 19.410445c1.980658 6.338104 4.357447 12.676209 6.734236 19.014313 19.806576 49.516441 57.835203 91.506383 104.974854 116.066538 23.37176 12.676209 49.516441 20.598839 75.661122 23.767892l4.753579 0.792263c1.584526 0.396132 3.169052 0.396132 5.14971 0.396131l9.903288 0.396132c3.169052 0 6.734236 0.396132 9.903288 0.396131H613.409671c26.540812 0 53.081625-5.14971 78.037911-14.260735 24.956286-9.507157 48.328046-22.975629 68.530755-40.405415 20.202708-17.429787 37.632495-38.028627 50.308704-61.400387 13.07234-23.37176 21.787234-49.120309 25.748549-75.264991l1.584526-9.903288c0.396132-3.169052 0.396132-6.734236 0.792263-9.903288 0.396132-6.734236 0.792263-13.468472 0.792263-19.806576V344.238298l-0.792263-5.14971z m-19.014313 14.260735v325.620116c0 6.338104-0.396132 12.280077-0.792263 18.618182 0 3.169052-0.396132 5.941973-0.396132 9.111025l-1.584526 9.111025c-3.565184 24.164023-11.487814 47.535783-23.37176 68.926886-11.883946 21.391103-27.729207 40.405416-45.951257 56.250677-18.618182 15.845261-40.009284 28.52147-62.588782 36.840232-22.975629 8.714894-47.139652 13.07234-71.699806 13.072341H411.778723c-3.169052 0-5.941973-0.396132-9.111025-0.396132l-9.111025-0.396131c-1.584526 0-3.169052 0-4.753578-0.396132l-4.357447-0.792263c-24.164023-2.772921-47.931915-10.29942-69.323017-21.787234-43.178337-22.975629-78.037911-61.004255-96.259962-106.559381-1.980658-5.941973-4.357447-11.487814-5.941973-17.429787l-4.753578-17.825919-2.772921-18.22205c-0.792263-5.941973-0.792263-12.280077-1.188394-18.222051l-0.396132-4.753578V345.030561c0-6.338104 0.396132-12.280077 0.792263-18.618182 0-3.169052 0.396132-5.941973 0.396132-9.111025l1.584526-9.111025c3.565184-24.164023 11.487814-47.535783 23.37176-68.926886 11.883946-21.391103 27.729207-40.405416 45.951257-56.250677 18.618182-15.845261 40.009284-28.52147 62.588782-36.840232 22.975629-8.714894 47.139652-13.07234 71.699806-13.072341H611.429014c3.169052 0 5.941973 0.396132 9.111025 0.396132l9.111025 0.396131c1.584526 0 3.169052 0 4.753578 0.396132l4.357447 0.792263c24.164023 2.772921 47.931915 10.29942 69.323017 21.787234 43.178337 22.975629 78.037911 61.004255 96.259962 106.559381 1.980658 5.941973 4.357447 11.487814 5.941973 17.429787l4.753578 17.825919 2.772921 18.22205c0.792263 5.941973 0.792263 12.280077 1.188394 18.222051l0.396132 4.753578V353.349323z" fill="#ffffff" p-id="31596"></path><path d="M876.441006 339.088588l-0.396132-5.941973c-0.396132-7.922631-0.396132-15.44913-1.584526-23.37176l-3.565184-22.975629-5.941973-22.579497c-1.980658-7.526499-5.14971-14.656867-7.92263-22.183365-23.37176-57.835203-67.34236-106.559381-122.404642-135.873114-27.333075-14.656867-57.835203-24.164023-88.733463-28.125339l-5.941972-0.792263c-1.980658-0.396132-3.961315-0.396132-5.941973-0.396132l-11.487815-0.792263-5.941973-0.396131c-1.980658 0-3.961315-0.396132-5.545841 0H410.590329c-31.294391 0-62.19265 5.941973-91.506383 16.637524-29.313733 11.091683-56.250677 26.936944-80.018569 47.139652-23.37176 20.202708-43.574468 44.366731-58.627466 71.699806-15.052998 27.333075-25.352418 57.04294-30.105996 87.9412l-1.584526 11.487814c-0.396132 3.961315-0.396132 7.922631-0.792263 11.487814l-0.396132 11.487815c0 1.980658-0.396132 3.961315-0.396131 5.545841V683.723017l0.396131 5.941973c0.396132 7.922631 0.396132 15.44913 1.584526 23.37176l3.565184 22.975629 5.941973 22.579497c1.980658 7.526499 5.14971 14.656867 7.922631 22.183366 23.37176 57.835203 67.34236 106.559381 122.404642 135.873114 27.333075 14.656867 57.835203 24.164023 88.733462 28.125338l5.941973 0.792263c1.980658 0.396132 3.961315 0.396132 5.941973 0.396132l11.487814 0.792263 5.941973 0.396132c1.980658 0 3.961315 0.396132 5.545841 0H613.805803c31.294391 0 62.19265-5.941973 91.506383-16.637525 29.313733-11.091683 56.250677-26.936944 80.018568-47.139651 23.37176-20.202708 43.574468-44.366731 58.627467-71.699807 15.052998-27.333075 25.352418-57.04294 30.105996-87.941199l1.584526-11.487815c0.396132-3.961315 0.396132-7.922631 0.792263-11.487814l0.396131-11.487814c0-1.980658 0.396132-3.961315 0.396132-5.545842V343.842166l-0.792263-4.753578z m-19.014314 14.260735v330.373694c0 1.584526 0 3.565184-0.396131 5.14971l-0.396132 10.695552c-0.396132 3.565184-0.396132 7.130368-0.792263 10.695551l-1.584526 10.695551c-4.357447 28.52147-13.864603 56.250677-27.729207 81.603095-13.864603 25.352418-32.482785 47.931915-54.666151 66.550097-21.787234 18.618182-47.139652 33.67118-74.076595 43.970599-26.936944 10.29942-55.854545 15.44913-84.772147 15.44913H411.778723c-3.169052 0-7.130368-0.396132-10.695551-0.396132l-10.695551-0.396131c-1.980658 0-3.565184 0-5.545842-0.396132l-5.545841-0.792263c-28.52147-3.565184-56.646809-12.280077-82.395358-25.748549-51.100967-26.936944-91.902515-72.095938-113.689748-125.969826-2.376789-6.734236-5.14971-13.468472-7.130368-20.59884l-5.545841-20.994971-3.169052-21.391102c-0.792263-7.130368-0.792263-14.260735-1.188395-21.787234l-0.396132-5.545842V340.276983c0-1.584526 0-3.565184 0.396132-5.14971l0.396132-10.695552c0.396132-3.565184 0.396132-7.130368 0.792263-10.695551l1.584526-10.695551c4.357447-28.52147 13.864603-56.250677 27.729207-81.603095C210.940039 195.688975 229.558221 173.109478 251.345455 154.491296c21.787234-18.618182 47.139652-33.67118 74.076595-43.9706C352.358994 100.221277 381.276596 95.071567 410.194197 95.071567H611.429014c3.169052 0 7.130368 0.396132 10.695551 0.396131l10.695551 0.396132c1.980658 0 3.565184 0 5.545841 0.396131l5.545842 0.792263c28.52147 3.565184 56.646809 12.280077 82.395358 25.74855 51.100967 26.936944 91.902515 72.095938 113.689748 125.969826 2.376789 6.734236 5.14971 13.468472 7.130368 20.598839l5.545841 20.994971 3.169052 21.391103c0.792263 7.130368 0.792263 14.260735 1.188395 21.787234l0.396131 5.545841V353.349323z" fill="#ffffff" p-id="31597"></path><path d="M914.469632 339.088588l-0.396131-6.734236c-0.396132-8.714894-0.792263-17.825919-1.584526-26.540812-1.188395-8.714894-2.772921-17.825919-3.961315-26.540813-1.980658-8.714894-4.357447-17.429787-6.734236-26.144681-2.376789-8.714894-5.941973-17.033656-8.714894-25.352417-26.540812-66.153965-76.849516-122.008511-139.834429-155.283559-7.922631-3.961315-15.845261-7.922631-24.164024-11.487815-8.318762-3.169052-16.637524-6.338104-24.956286-9.111025-8.714894-2.376789-17.429787-4.753578-25.748549-6.734236-4.357447-1.188395-8.714894-1.584526-13.072341-2.376789l-13.07234-1.980658-6.734236-0.792263c-2.376789-0.396132-4.357447-0.396132-6.734236-0.396131l-13.468472-0.792263-7.526499-0.792263H410.590329c-35.651838 0-71.303675 6.734236-104.974855 19.014313-33.275048 12.676209-64.569439 30.898259-91.506383 53.873888-26.936944 22.975629-49.912573 50.704836-66.946228 81.999226-17.429787 31.294391-28.917602 65.361702-34.463443 101.01354l-1.980658 13.468472c-0.396132 4.357447-0.792263 8.714894-0.792263 13.468472l-0.792263 13.468472V684.911412l0.396132 6.734236c0.396132 8.714894 0.792263 17.825919 1.584526 26.540812 1.188395 8.714894 2.772921 17.825919 3.961315 26.540813 1.980658 8.714894 4.357447 17.429787 6.734236 26.144681 2.376789 8.714894 5.941973 17.033656 8.714893 25.352417 26.540812 66.153965 76.849516 122.008511 139.83443 155.283559 7.922631 3.961315 15.845261 7.922631 24.164023 11.487815 8.318762 3.169052 16.637524 6.338104 24.956286 9.111025 8.714894 2.376789 17.429787 4.753578 25.74855 6.734236 4.357447 1.188395 8.714894 1.584526 13.07234 2.376789l13.072341 1.980658 6.734236 0.792263c2.376789 0.396132 4.357447 0.396132 6.734235 0.396131l13.468472 0.792263 6.734236 0.396132h207.969053c35.651838 0 71.303675-6.734236 104.974855-19.014314 33.275048-12.676209 64.569439-30.898259 91.506383-53.873887 26.936944-22.975629 49.912573-50.704836 66.946228-81.999227 17.429787-31.294391 28.917602-65.361702 34.463443-101.013539l1.980657-13.072341c0.396132-4.357447 0.792263-8.714894 0.792263-13.468472l0.792263-13.468472v-3.169052-347.40735z m-19.014313 14.260735v336.315667l-0.792263 12.676209c-0.396132 4.357447-0.396132 8.318762-0.792263 12.676209l-1.980658 12.280077c-5.14971 32.878917-15.845261 65.361702-32.086653 94.279304-16.241393 29.313733-37.632495 55.458414-62.984913 76.849517-25.352418 21.787234-54.270019 38.82089-85.56441 50.704835-31.294391 11.883946-64.965571 17.825919-98.240619 17.825919H405.83675L399.894778 966.560928l-12.676209-0.792263c-1.980658 0-4.357447 0-6.338105-0.396131l-6.338104-0.792263-12.280078-1.980658c-3.961315-0.792263-8.318762-1.188395-12.280077-2.376789-7.922631-1.980658-16.241393-3.961315-24.164023-6.338104-7.922631-2.772921-15.845261-5.545841-23.37176-8.714894-7.526499-3.169052-15.052998-7.130368-22.579497-10.695551-59.023598-31.294391-106.16325-83.187621-131.119536-145.380271-2.772921-7.922631-5.941973-15.44913-8.318762-23.767892-1.980658-7.922631-4.357447-16.241393-6.338105-24.164023-1.188395-8.318762-2.772921-16.637524-3.961315-24.956286-1.188395-8.318762-1.188395-16.637524-1.584526-24.956287l-0.396132-6.338104v-344.634429-5.941973l0.792263-12.676209c0.396132-4.357447 0.396132-8.318762 0.792263-12.676209l1.980658-12.280077c5.14971-32.878917 15.845261-65.361702 32.086654-94.279304 16.241393-29.313733 37.632495-55.458414 62.984913-76.849517 25.352418-21.787234 54.270019-38.82089 85.56441-50.704835 31.294391-11.883946 64.965571-17.825919 98.240619-17.825919H617.767118l6.338104 0.396132 12.676209 0.792263c1.980658 0 4.357447 0 6.338105 0.396131l6.338104 0.792263 12.280078 1.980658c3.961315 0.792263 8.318762 1.188395 12.280077 2.376789 7.922631 1.980658 16.241393 3.961315 24.164023 6.338104 7.922631 2.772921 15.845261 5.545841 23.37176 8.714894 7.526499 3.169052 15.052998 7.130368 22.579497 10.695551 59.023598 31.294391 106.16325 83.187621 131.119536 145.380271 2.772921 7.922631 5.941973 15.44913 8.318762 23.767892 1.980658 7.922631 4.357447 16.241393 6.338105 24.164023 1.188395 8.318762 2.772921 16.637524 3.961315 24.956286 1.188395 8.318762 1.188395 16.637524 1.584526 24.956287l0.396132 6.338104V353.349323z" fill="#ffffff" p-id="31598"></path><path d="M613.01354 1024v-19.014313c38.028627 0 76.057253-7.130368 111.312959-20.202708 35.651838-13.468472 68.530754-32.878917 97.052224-57.439072 28.52147-24.560155 53.081625-54.270019 71.303675-87.148936 18.22205-33.275048 30.898259-69.719149 36.444101-107.351644l1.980658-14.260735c0.396132-4.753578 0.792263-9.507157 0.792263-14.260735l0.792263-14.260735V338.692456l-0.396132-7.130367c-0.396132-9.507157-0.792263-19.014313-1.980657-28.52147-1.188395-9.507157-2.772921-18.618182-4.357447-28.125339-2.376789-9.111025-4.753578-18.618182-7.130368-27.729206-2.772921-9.111025-6.338104-17.825919-9.507156-26.936944C880.798453 149.737718 827.716828 90.71412 760.374468 55.458414c-8.318762-4.357447-17.033656-8.318762-25.748549-12.280077-8.714894-3.565184-17.825919-6.734236-26.936944-9.903289-9.111025-2.772921-18.22205-5.14971-27.729207-7.130367-4.753578-1.188395-9.507157-1.980658-13.864604-2.772921l-12.676208-1.584526-7.130368-1.188395c-2.376789-0.396132-4.753578-0.396132-7.130367-0.396131l-14.260736-0.792263-7.130367-0.396132H410.590329c-38.028627 0-76.057253 7.130368-111.31296 20.202708-35.651838 13.468472-68.530754 32.878917-97.052224 57.439072-28.52147 24.560155-53.081625 54.270019-71.303675 87.148936-18.22205 33.275048-30.898259 69.719149-36.444101 107.351644l-1.980657 14.260735c-0.396132 4.753578-0.792263 9.507157-0.792263 14.260735L90.912186 333.938878V685.307544l0.396131 7.130367c0.396132 9.507157 0.792263 19.014313 1.980658 28.52147 1.188395 9.507157 2.772921 18.618182 4.357447 28.125339 2.376789 9.111025 4.753578 18.618182 7.130367 27.729206 2.772921 9.111025 6.338104 17.825919 9.507157 26.936944 28.52147 70.511412 81.603095 129.53501 148.945454 164.790716 8.318762 4.357447 17.033656 8.318762 25.74855 12.280077 8.714894 3.565184 17.825919 6.734236 26.936944 9.903289 9.111025 2.772921 18.22205 5.14971 27.729207 7.130367 4.753578 1.188395 9.507157 1.980658 13.864603 2.772921l14.260735 1.980657 7.130368 1.188395c2.376789 0.396132 4.753578 0.396132 7.130367 0.396132l14.260735 0.792263 7.130368 0.396131h5.149709-0.792263H613.01354v18.618182H405.044487l-7.526499-0.396132-15.052998-0.792263c-2.376789 0-5.14971-0.396132-7.526499-0.396131l-7.526499-1.188395-15.052998-2.376789c-5.14971-0.792263-9.903288-1.584526-14.656866-2.772921-9.903288-2.376789-19.410445-4.753578-29.313733-7.526499-9.507157-3.169052-19.014313-6.734236-28.52147-10.299419-9.111025-3.961315-18.22205-8.318762-27.333076-13.072341-70.907544-37.632495-127.554352-99.825145-157.660348-174.694004-3.565184-9.507157-7.130368-18.618182-9.903288-28.52147s-5.14971-19.410445-7.526499-29.313733l-4.753579-29.709864c-1.188395-9.903288-1.584526-20.202708-1.980657-30.105996L71.105609 685.307544V333.542747l0.792263-15.052998c0.396132-5.14971 0.396132-9.903288 1.188395-15.052999l1.980658-15.052998c5.941973-39.613153 19.410445-78.434043 38.820889-113.689748 19.410445-35.255706 45.158994-66.550097 75.661122-92.298646 30.105996-26.144681 65.361702-46.74352 102.994197-61.004255C330.175629 7.526499 370.581044 0 410.590329 0h207.969052l7.526499 0.396132 15.052998 0.792263c2.376789 0 5.14971 0.396132 7.526499 0.396131l7.526499 1.188395 15.052998 2.376789c5.14971 0.792263 9.903288 1.584526 14.656867 2.772921 9.903288 2.376789 19.410445 4.753578 29.313733 7.526499 9.507157 3.169052 19.014313 6.734236 28.52147 10.299419 9.111025 3.961315 18.22205 8.318762 27.333075 13.072341 70.907544 37.632495 127.554352 99.825145 157.660349 174.694004 3.565184 9.507157 7.130368 18.618182 9.903288 28.52147s5.14971 19.410445 7.526499 29.313733l4.753578 29.709864c1.188395 9.903288 1.584526 20.202708 1.980658 30.105996l0.396131 7.526499V690.457253l-0.792263 15.052998c-0.396132 5.14971-0.396132 9.903288-1.188394 15.052999l-1.980658 15.052998c-5.941973 39.613153-19.410445 78.434043-38.82089 113.689748-19.410445 35.255706-45.158994 66.550097-75.661122 92.298646-30.105996 26.144681-65.361702 46.74352-102.994197 61.004255-38.424758 14.260735-78.830174 21.391103-118.839458 21.391103z" fill="#ffffff" p-id="31599"></path><path d="M742.944681 336.315667c-0.396132-3.961315 0-7.526499-0.792263-11.487814s-1.188395-7.526499-1.584526-11.487814c-1.188395-3.565184-1.980658-7.526499-2.772921-11.091683-1.188395-3.565184-2.772921-7.130368-3.961315-10.695551-11.487814-28.52147-33.67118-53.081625-61.004256-67.34236-13.468472-7.526499-28.52147-11.883946-43.574468-13.864604l-2.77292-0.396131h-2.772921l-5.941973-0.396132H410.590329c-30.898259 0.396132-61.004255 11.487814-84.772147 31.690523-11.883946 9.903288-21.787234 22.183366-29.313733 35.651837-7.526499 13.468472-12.280077 28.125338-14.656867 43.178337l-0.792263 5.545841c-0.396132 1.980658 0 3.961315-0.396131 5.941973l-0.396132 5.941973V685.703675l0.396132 2.772921c0.396132 3.961315 0 7.526499 0.792263 11.487814s1.188395 7.526499 1.584526 11.487814c1.188395 3.565184 1.980658 7.526499 2.77292 11.091683 1.188395 3.565184 2.772921 7.130368 3.961316 10.695551 11.487814 28.52147 33.67118 53.081625 61.004255 67.34236 13.468472 7.526499 28.52147 11.883946 43.574468 13.864604l2.772921 0.396131h2.772921l5.941972 0.396132H613.01354c30.898259-0.396132 61.004255-11.487814 84.772147-31.690523 11.883946-9.903288 21.787234-22.183366 29.313733-35.651837 7.526499-13.468472 12.280077-28.125338 14.656866-43.178337l0.792263-5.545841c0.396132-1.980658 0-3.961315 0.396132-5.941973l0.396131-5.941973v-1.584526V339.088588l-0.396131-2.772921z m-18.618182 348.595745v1.980658c0 1.584526-0.396132 3.169052-0.396131 4.753578v4.753578c-0.396132 1.584526-0.792263 3.169052-0.792264 4.753579-1.980658 12.676209-5.941973 25.352418-12.280077 36.840232-6.338104 11.487814-15.052998 22.183366-24.956286 30.502127-10.29942 8.714894-21.787234 15.44913-34.067312 19.806577-12.280077 4.753578-24.956286 7.130368-38.424758 7.130367H406.232882c-1.584526 0-3.169052 0-4.753578-0.396131h-2.376789l-2.37679-0.396132c-13.07234-1.584526-25.748549-5.545841-37.236363-11.487814-23.37176-12.280077-42.386074-33.67118-52.289362-57.835203-0.792263-3.169052-2.376789-5.941973-3.169052-9.111025l-2.376789-9.507157c-0.396132-3.169052-0.792263-6.338104-1.584527-9.507157-0.396132-3.169052-0.396132-6.734236-0.396131-9.903288l-0.396132-2.376789v-344.634429-3.169053c0-1.584526 0.396132-3.169052 0.396132-4.753578v-4.753578c0.396132-1.584526 0.792263-3.169052 0.792263-4.753579 1.980658-12.676209 5.941973-25.352418 12.280077-36.840232 6.338104-11.487814 15.052998-22.183366 24.956287-30.502127 10.29942-8.714894 21.787234-15.44913 34.067311-19.806577 12.280077-4.753578 24.956286-7.130368 38.424758-7.130367h206.780658c1.584526 0 3.169052 0 4.753578 0.396131h2.376789l2.37679 0.396132c13.07234 1.584526 25.748549 5.545841 37.236363 11.487814 23.37176 12.280077 42.386074 33.67118 52.289362 57.835203 0.792263 3.169052 2.376789 5.941973 3.169052 9.111025l2.376789 9.507157c0.396132 3.169052 0.792263 6.338104 1.584526 9.507157 0.396132 3.169052 0.396132 6.734236 0.396132 9.903288l0.396132 2.376789v344.634429c0.396132 0.396132 0.396132 0.792263 0.396131 1.188395z" fill="#ffffff" p-id="31600"></path><path d="M780.973308 335.523404c-0.396132-5.14971-0.396132-9.903288-0.792264-15.052998-0.792263-4.753578-1.584526-9.903288-2.376789-14.656866l-3.565183-14.260735c-1.188395-4.753578-3.565184-9.507157-5.14971-13.864604-14.656867-36.840232-43.178337-68.530754-78.434043-87.148936-17.429787-9.507157-36.840232-15.44913-56.646808-17.825919l-3.565184-0.792263c-1.188395 0-2.376789 0-3.565184-0.396131l-7.526499-0.396132-3.565184-0.396131c-1.188395 0-2.376789-0.396132-3.961315 0H410.590329c-40.009284 0.396132-79.226306 14.656867-109.332302 40.801547-15.052998 13.07234-28.125338 28.52147-37.632495 45.951257-9.507157 17.429787-16.241393 36.444101-19.014313 56.250677l-1.188395 7.526499c-0.396132 2.376789-0.396132 5.14971-0.396132 7.526499l-0.396131 7.526499c0 1.188395-0.396132 2.376789 0 3.961316V684.911412l0.396131 3.565184c0.396132 5.14971 0.396132 9.903288 0.792264 15.052998 0.792263 4.753578 1.584526 9.903288 2.376789 14.656866l3.169052 14.656867c1.188395 4.753578 3.565184 9.507157 5.14971 13.864603 14.656867 36.840232 43.178337 68.530754 78.434042 87.148937 17.429787 9.507157 36.840232 15.44913 56.646809 17.825918l3.565184 0.792263c1.188395 0 2.376789 0 3.565183 0.396132l7.526499 0.396131 3.565184 0.396132c1.188395 0 2.376789 0.396132 3.961315 0H613.01354c40.009284-0.396132 79.226306-14.656867 109.332301-40.801547 15.052998-13.07234 28.125338-28.52147 37.632496-45.951258 9.507157-17.429787 16.241393-36.444101 19.014313-56.250677l1.188394-7.526499c0.396132-2.376789 0.396132-5.14971 0.396132-7.526499l0.396132-7.526499c0-1.188395 0.396132-2.376789 0-3.961315V335.523404z m-18.618182 17.825919V687.288201l-0.396132 6.734236c0 2.376789 0 4.357447-0.396131 6.734236l-1.188395 6.338105c-2.772921 17.429787-8.318762 34.067311-17.033656 49.516441-8.318762 15.44913-20.202708 29.313733-33.67118 40.801547-26.936944 23.37176-61.796518 36.047969-97.052224 36.444101H408.21354l-3.169053-0.396132-6.734236-0.396132h-3.169052l-3.169052-0.396131c-17.429787-1.980658-34.463443-7.526499-49.912573-15.845261-31.690522-16.637524-57.04294-44.366731-70.11528-77.245648-1.188395-4.357447-3.169052-8.318762-4.357447-12.280078-1.188395-4.357447-1.980658-8.318762-3.169052-12.676208-0.396132-4.357447-1.188395-8.714894-1.980658-13.072341-0.396132-4.357447-0.396132-8.714894-0.792263-13.07234l-0.396131-3.169052V340.276983 336.711799l0.396131-6.734236c0-2.376789 0-4.357447 0.396132-6.734236l1.188394-6.338105c2.772921-17.429787 8.318762-34.067311 17.033656-49.516441 8.318762-15.44913 20.202708-29.313733 33.67118-40.801547 26.936944-23.37176 61.796518-36.047969 97.052224-36.444101h204.8l3.169053 0.396132 6.734236 0.396132h3.169052l3.169052 0.396131c17.429787 1.980658 34.463443 7.526499 49.912573 15.845261 31.294391 16.637524 56.646809 44.762863 69.719148 77.245648 1.188395 4.357447 3.169052 8.318762 4.357447 12.280078 1.188395 4.357447 1.980658 8.318762 3.169053 12.676208 0.396132 4.357447 1.188395 8.714894 1.980657 13.072341 0.396132 4.357447 0.396132 8.714894 0.792263 13.07234l0.396132 3.169052v14.656867z" fill="#ffffff" p-id="31601"></path><path d="M819.001934 334.731141c-0.396132-5.941973-0.396132-12.280077-1.188394-18.22205l-2.772921-18.22205-4.753578-17.825919c-1.584526-5.941973-3.961315-11.487814-5.941973-17.429787-18.22205-45.158994-52.685493-83.583752-96.259962-106.559381-21.391103-11.487814-45.158994-19.014313-69.323017-21.787234l-4.357447-0.792264c-1.584526 0-3.169052 0-4.753578-0.396131l-9.111025-0.396132c-3.169052 0-5.941973-0.396132-9.111025-0.396131H410.590329c-24.560155 0-48.724178 4.753578-71.699807 13.07234-22.975629 8.714894-43.9706 20.994971-62.588781 36.840232-18.618182 15.845261-34.463443 34.859574-45.951257 56.250677-11.883946 21.391103-19.806576 44.762863-23.371761 68.926886l-1.584526 9.111025c-0.396132 3.169052-0.396132 5.941973-0.396131 9.111026-0.396132 6.338104-0.792263 11.883946-0.792263 18.618181V684.51528l0.396131 4.753579c0.396132 5.941973 0.396132 12.280077 1.188395 18.22205l2.772921 18.22205 4.753578 17.825919c1.584526 5.941973 3.961315 11.487814 5.941973 17.429787 18.22205 45.158994 52.685493 83.583752 96.259961 106.559381 21.391103 11.487814 45.158994 19.014313 69.323017 21.787234l4.357447 0.792264c1.584526 0 3.169052 0 4.753579 0.396131l9.111025 0.396132c3.169052 0 5.941973 0.396132 9.111025 0.396131H613.409671c24.560155 0 48.724178-4.753578 71.699807-13.07234 22.975629-8.714894 43.9706-20.994971 62.588781-36.840232 18.618182-15.845261 34.463443-34.859574 45.951257-56.250677 11.883946-21.391103 19.806576-44.762863 23.371761-68.926886l1.584526-9.111025c0.396132-3.169052 0.396132-5.941973 0.396131-9.111026 0.396132-6.338104 0.792263-11.883946 0.792263-18.618181V339.48472l-0.792263-4.753579z m-18.618182 18.618182v334.731141l-0.396131 8.318762c0 2.772921 0 5.545841-0.396132 8.318762l-1.188394 8.318762c-3.169052 21.787234-10.695551 43.178337-21.391103 62.588782s-24.956286 36.840232-41.989942 51.100967c-17.033656 14.260735-36.047969 25.748549-57.04294 33.67118-20.598839 7.922631-42.782205 11.883946-64.96557 11.883946H411.778723c-3.169052 0-5.545841-0.396132-8.318762-0.396132l-8.318762-0.396131c-1.188395 0-2.772921 0-3.961315-0.396132l-3.961315-0.792263c-21.787234-2.772921-43.574468-9.507157-62.984913-19.806576-39.217021-20.598839-70.907544-55.458414-87.148936-96.656093-1.980658-5.14971-3.961315-10.29942-5.545842-15.44913l-3.961315-16.241392-2.376789-16.241393c-0.792263-5.545841-0.792263-11.091683-1.188395-16.637524l-0.396131-3.961315V340.276983v-4.357447l0.396131-8.318762c0-2.772921 0-5.545841 0.396132-8.318762l1.188394-8.318762c3.169052-21.787234 10.695551-43.178337 21.391103-62.588782s24.956286-36.840232 41.989942-51.100967c17.033656-14.260735 36.047969-25.748549 57.04294-33.67118 20.598839-7.922631 42.782205-11.883946 64.96557-11.883946H612.221277c3.169052 0 5.545841 0.396132 8.318762 0.396132l8.318762 0.396131c1.188395 0 2.772921 0 3.961315 0.396132l3.961315 0.792263c21.787234 2.772921 43.574468 9.507157 62.984913 19.806576 39.217021 20.598839 70.907544 55.458414 87.148936 96.656093 1.980658 5.14971 3.961315 10.29942 5.545842 15.44913l3.961315 16.241392 2.376789 16.241393c0.792263 5.545841 0.792263 11.091683 1.188395 16.637524l0.396131 3.961315v14.656867z" fill="#ffffff" p-id="31602"></path><path d="M857.030561 333.542747c-0.396132-7.130368-0.396132-14.260735-1.188395-21.787234l-3.169052-21.391103-5.545841-20.994971c-1.980658-7.130368-4.753578-13.468472-7.130368-20.598839-21.391103-53.873888-62.588781-99.032882-113.689748-125.969826-25.352418-13.468472-53.477756-22.579497-82.395358-25.74855l-5.545842-0.792263c-1.980658-0.396132-3.565184-0.396132-5.545841-0.396131l-10.695551-0.396132c-3.565184 0-7.526499-0.396132-10.695551-0.396131H410.590329c-28.917602 0-57.835203 5.545841-84.772147 15.449129-26.936944 10.29942-52.289362 24.956286-74.076596 43.9706-22.183366 18.618182-40.801547 41.197679-54.666151 66.550097s-23.37176 53.081625-27.729207 81.603094l-1.584526 10.695552c-0.396132 3.565184-0.396132 7.130368-0.792263 10.695551l-0.396131 10.695551c0 1.584526-0.396132 3.565184-0.396132 5.14971V684.51528l0.396132 5.545842c0.396132 7.130368 0.396132 14.260735 1.188394 21.787234l3.169052 21.391102 5.545842 20.994971c1.980658 7.130368 4.753578 13.468472 7.130367 20.59884 21.391103 53.873888 62.588781 99.032882 113.689749 125.969826 25.352418 13.468472 53.477756 22.579497 82.395358 25.748549l5.545841 0.792263c1.980658 0.396132 3.565184 0.396132 5.545841 0.396132l10.695552 0.396131c3.565184 0 7.526499 0.396132 10.695551 0.396132H613.409671c28.917602 0 57.835203-5.545841 84.772147-15.44913 26.936944-10.29942 52.289362-24.956286 74.076596-43.970599 21.787234-18.618182 40.801547-41.197679 54.666151-66.550097s23.37176-53.081625 27.729207-81.603095l1.584526-10.695551c0.396132-3.565184 0.396132-7.130368 0.792263-10.695551l0.396131-10.695552c0-1.584526 0.396132-3.565184 0.396132-5.14971V339.088588l-0.792263-5.545841z m-18.618182 19.806576v325.620116c0 6.338104-0.396132 13.07234-0.792263 19.806576-0.396132 3.169052-0.396132 6.734236-0.792263 9.903289l-1.584526 9.903288c-3.961315 26.144681-12.676209 51.89323-25.748549 75.26499-12.676209 23.37176-30.105996 44.366731-50.308704 61.400387-20.202708 17.429787-43.574468 31.294391-68.530755 40.405416-24.956286 9.507157-51.497099 14.260735-78.037911 14.260735H411.778723c-3.169052 0-6.734236-0.396132-9.903288-0.396132l-9.903288-0.396131c-1.584526 0-3.169052 0-5.14971-0.396132l-4.753578-0.792263c-26.540812-3.169052-52.289362-11.487814-75.661122-23.767891-47.139652-24.956286-85.168279-66.550097-104.974855-116.066538-2.376789-6.338104-4.753578-12.280077-6.734236-19.014313l-5.14971-19.410445-3.169052-19.806577c-0.792263-6.734236-0.792263-13.468472-1.188395-19.806576l-0.396131-5.14971V345.030561c0-6.338104 0.396132-13.07234 0.792263-19.806576 0.396132-3.169052 0.396132-6.734236 0.792263-9.903289l1.584526-9.903288c3.961315-26.144681 12.676209-51.89323 25.748549-75.26499 12.676209-23.37176 30.105996-44.366731 50.308704-61.400387 20.202708-17.429787 43.574468-31.294391 68.530755-40.405416 24.956286-9.507157 51.497099-14.260735 78.037911-14.260735H611.825145c3.169052 0 6.734236 0.396132 9.903288 0.396132l9.903288 0.396131c1.584526 0 3.169052 0 5.14971 0.396132l4.753579 0.792263c26.540812 3.169052 52.289362 11.487814 75.661122 23.767891 47.139652 24.956286 85.168279 66.550097 104.974854 116.066538 2.376789 6.338104 4.753578 12.280077 6.734236 19.014313l5.14971 19.410445 3.169053 19.806577c0.792263 6.734236 0.792263 13.468472 1.188394 19.806576l0.396132 5.14971V353.349323z" fill="#ffffff" p-id="31603"></path><path d="M895.059188 332.750484c-0.396132-8.318762-0.792263-16.637524-1.584526-24.956287-1.188395-8.318762-2.376789-16.637524-3.961316-24.956286-1.980658-8.318762-3.961315-16.241393-6.338104-24.164023-2.376789-7.922631-5.545841-15.845261-8.318762-23.767892-24.956286-62.19265-72.095938-114.08588-131.119536-145.380271-7.526499-3.565184-15.052998-7.526499-22.579497-10.695551-7.922631-2.772921-15.845261-5.941973-23.37176-8.714894-7.922631-2.376789-16.241393-4.357447-24.164024-6.338104-3.961315-1.188395-8.318762-1.584526-12.280077-2.376789l-12.280077-1.980658-6.338105-0.792263c-1.980658-0.396132-4.357447-0.396132-6.338104-0.396131l-12.676209-0.792263-6.338105-0.396132c-1.980658 0-4.357447-0.396132-5.941972 0H410.590329c-33.275048 0-66.946228 6.338104-98.240619 17.825919-31.294391 11.883946-60.608124 28.917602-85.56441 50.704835-25.352418 21.787234-46.74352 47.535783-62.984913 76.849517-16.241393 29.313733-27.333075 61.400387-32.086654 94.279304l-1.980658 12.280077c-0.396132 3.961315-0.396132 8.318762-0.792263 12.676209l-0.792263 12.676209V684.911412l0.396132 6.338104c0.396132 8.318762 0.792263 16.637524 1.584526 24.956287 1.188395 8.318762 2.376789 16.637524 3.961315 24.956286 1.980658 8.318762 3.961315 16.241393 6.338105 24.164023 2.376789 7.922631 5.545841 15.845261 8.318762 23.767892 24.956286 62.19265 72.095938 114.08588 131.119536 145.380271 7.526499 3.565184 15.052998 7.526499 22.579497 10.695551 7.922631 2.772921 15.845261 5.941973 23.37176 8.714894 7.922631 2.376789 16.241393 4.357447 24.164023 6.338104 3.961315 1.188395 8.318762 1.584526 12.280077 2.376789l12.280078 1.980658 6.338104 0.792263c1.980658 0.396132 4.357447 0.396132 6.338105 0.396131l12.676209 0.792263 6.338104 0.396132c1.980658 0 4.357447 0.396132 5.941973 0H613.409671c33.275048 0 66.946228-6.338104 98.240619-17.825919 31.294391-11.883946 60.608124-28.917602 85.56441-50.704835 25.352418-21.787234 46.74352-47.535783 62.984913-76.849517 16.241393-29.313733 27.333075-61.400387 32.086654-94.279304l1.980658-12.280077c0.396132-3.961315 0.396132-8.318762 0.792263-12.676209l0.792263-12.676209v-3.169052-347.40735L895.059188 332.750484z m-18.618182 20.598839v330.373694c0 1.584526 0 3.961315-0.396132 5.545842l-0.396131 11.487814c-0.396132 3.961315-0.396132 7.922631-0.792263 11.487814l-1.584526 11.487815c-4.753578 30.898259-15.052998 61.004255-30.105997 87.941199-15.052998 27.333075-35.255706 51.497099-58.627466 71.699807-23.37176 20.202708-50.704836 36.444101-80.018568 47.139651-29.313733 11.091683-60.211992 16.637524-91.506383 16.637525H406.232882l-5.941973-0.396132-11.487814-0.792263c-1.980658 0-3.961315 0-5.941973-0.396132l-5.941973-0.792263c-30.898259-3.961315-61.400387-13.468472-88.733462-28.125338-55.062282-28.917602-99.032882-77.641779-122.404643-135.873114-2.772921-7.526499-5.545841-14.656867-7.92263-22.183366l-5.941973-22.579497-3.565184-22.975629c-0.792263-7.922631-1.188395-15.44913-1.584526-23.37176l-0.396131-5.941973V340.276983c0-1.584526 0-3.961315 0.396131-5.545842l0.396132-11.487814c0.396132-3.961315 0.396132-7.922631 0.792263-11.487814l1.584526-11.487815c4.753578-30.898259 15.052998-61.004255 30.105996-87.941199 15.052998-27.333075 35.255706-51.497099 58.627466-71.699807 23.37176-20.202708 50.704836-36.444101 80.018569-47.139651 29.313733-11.091683 60.211992-16.637524 91.506383-16.637525h206.780657l5.941973 0.396132 11.487815 0.792263c1.980658 0 3.961315 0 5.941973 0.396132l5.941972 0.792263c30.898259 3.961315 61.400387 13.468472 88.733463 28.125338 55.062282 28.917602 99.032882 77.641779 122.404642 135.873114 2.772921 7.526499 5.545841 14.656867 7.92263 22.183366l5.941973 22.579497 3.565184 22.975629c0.792263 7.922631 1.188395 15.44913 1.584526 23.37176l0.396132 5.941973v13.07234z" fill="#ffffff" p-id="31604"></path><path d="M933.483946 339.088588l-0.396132-7.130367c-0.396132-9.507157-0.792263-19.014313-1.980657-28.521471-1.188395-9.507157-2.772921-18.618182-4.357447-28.125338-2.376789-9.111025-4.753578-18.618182-7.130368-27.729207-2.772921-9.111025-6.338104-17.825919-9.507156-26.936944-28.52147-70.511412-81.603095-129.53501-148.945455-164.790716-8.318762-4.357447-17.033656-8.318762-25.748549-12.280077-8.714894-3.565184-17.825919-6.734236-26.936944-9.903288-9.111025-2.772921-18.22205-5.14971-27.729207-7.130368-4.753578-1.188395-9.507157-1.980658-13.864604-2.77292l-13.468471-1.980658-7.130368-1.188395c-2.376789-0.396132-4.753578-0.396132-7.130367-0.396131l-14.260736-0.792263-7.130367-0.396132H410.590329c-38.028627 0-76.057253 7.130368-111.31296 20.202708-35.651838 13.468472-68.530754 32.878917-97.052224 57.439072-28.52147 24.560155-53.081625 54.270019-71.303675 87.148936-18.22205 33.275048-30.898259 69.719149-36.444101 107.351644l-1.980657 14.260735c-0.396132 4.753578-0.792263 9.507157-0.792263 14.260735L90.912186 333.938878V685.307544l0.396131 7.130367c0.396132 9.507157 0.792263 19.014313 1.980658 28.52147 1.188395 9.507157 2.772921 18.618182 4.357447 28.125339 2.376789 9.111025 4.753578 18.618182 7.130367 27.729206 2.772921 9.111025 6.338104 17.825919 9.507157 26.936944 28.52147 70.511412 81.603095 129.53501 148.945454 164.790716 8.318762 4.357447 17.033656 8.318762 25.74855 12.280077 8.714894 3.565184 17.825919 6.734236 26.936944 9.903289 9.111025 2.772921 18.22205 5.14971 27.729207 7.130367 4.753578 1.188395 9.507157 1.980658 13.864603 2.772921l14.260735 1.980657 7.130368 1.188395c2.376789 0.396132 4.753578 0.396132 7.130367 0.396132l14.260735 0.792263 7.130368 0.396131h5.149709-0.792263H613.01354c38.028627 0 76.057253-7.130368 111.312959-20.202708 35.651838-13.468472 68.530754-32.878917 97.052224-57.439071 28.52147-24.560155 53.081625-54.270019 71.303675-87.148936 18.22205-33.275048 30.898259-69.719149 36.444101-107.351645l1.980658-14.260735c0.396132-4.753578 0.792263-9.507157 0.792263-14.260735l0.792263-14.260735V344.238298l0.792263-5.14971z m-19.014314 14.260735v336.315667l-0.792263 13.468472c-0.396132 4.357447-0.396132 8.714894-0.792263 13.468472l-1.980657 13.072341c-5.14971 35.255706-17.033656 69.719149-34.463443 101.013539-17.033656 31.294391-40.405416 59.023598-66.946228 81.999227-26.936944 22.975629-57.835203 41.59381-91.506383 53.873887-33.275048 12.676209-69.323017 19.014313-104.974855 19.014314H405.83675l-6.734235-0.396132-13.468472-0.792263c-2.376789 0-4.357447-0.396132-6.734236-0.396131l-6.734236-0.792263-13.072341-1.980658c-4.357447-0.792263-8.714894-1.188395-13.07234-2.376789-8.714894-1.980658-17.429787-4.357447-25.74855-6.734236-8.318762-2.772921-16.637524-5.941973-24.956286-9.111025-8.318762-3.565184-16.241393-7.526499-24.164023-11.487815-62.984913-33.275048-113.293617-88.733462-139.834429-155.283559-3.169052-8.318762-6.338104-16.637524-8.714894-25.352417-2.376789-8.714894-4.753578-17.429787-6.734236-26.144681-1.584526-8.714894-2.772921-17.825919-3.961315-26.540813-1.188395-8.714894-1.188395-17.825919-1.584526-26.540812l-1.188395-6.338104V340.276983v-5.941973l0.792263-13.468472c0.396132-4.357447 0.396132-8.714894 0.792263-13.468472l1.980658-13.072341c5.14971-35.255706 17.033656-69.719149 34.463443-101.013539 17.033656-31.294391 40.405416-59.023598 66.946228-81.999227 26.936944-22.975629 57.835203-41.59381 91.506383-53.873887 33.275048-12.676209 69.323017-19.014313 104.974855-19.014314H617.767118l6.734236 0.396132 13.468472 0.792263c2.376789 0 4.357447 0.396132 6.734236 0.396131l6.734236 0.792263 13.07234 1.980658c4.357447 0.792263 8.714894 1.188395 13.072341 2.376789 8.714894 1.980658 17.429787 4.357447 25.748549 6.734236 8.318762 2.772921 16.637524 5.941973 24.956286 9.111025 8.318762 3.565184 16.241393 7.526499 24.164024 11.487815 62.984913 33.275048 113.293617 88.733462 139.834429 155.283559 3.169052 8.318762 6.338104 16.637524 8.714894 25.352417 2.376789 8.714894 4.753578 17.429787 6.734236 26.144681 1.584526 8.714894 2.772921 17.825919 3.961315 26.540813 1.188395 8.714894 1.188395 17.825919 1.584526 26.540812l0.396131 6.734236V353.349323z" fill="#ffffff" p-id="31605"></path></svg>