<svg t="1694247581659" class="icon" viewBox="0 0 1024 1024" version="1.1" xmlns="http://www.w3.org/2000/svg" p-id="9328" width="128" height="128"><path d="M1024 416V288a48 48 0 0 0-48-48H48a48 48 0 0 0-48 48v128h64v64H0v256a48 48 0 0 0 48 48h928a48 48 0 0 0 48-48V480h-64v-64z m-48 320h-72v-72h-16v72h-48v-72h-16v72h-48v-72h-16v72h-48v-72h-16v72h-48v-72h-16v72H520v-72h-16v72h-48v-72h-16v72h-48v-72h-16v72h-48v-72h-16v72h-48v-72h-16v72h-48v-72h-16v72h-48v-72h-16v72H48V600h928v136z m-16-208h16v48H48v-48h64V368H48v-80h928v80h-64v160z" fill="#ffffff" p-id="9329"></path><path d="M564 600h24v136h-24z" fill="#ffffff" p-id="9330"></path></svg>