<svg t="1694248056057" class="icon" viewBox="0 0 1024 1024" version="1.1" xmlns="http://www.w3.org/2000/svg" p-id="20442" width="128" height="128"><path d="M832 192H170.666667V138.666667C170.666667 121.6 155.733333 106.666667 138.666667 106.666667S106.666667 121.6 106.666667 138.666667v746.666666c0 17.066667 14.933333 32 32 32S170.666667 902.4 170.666667 885.333333V768h106.666666v42.666667c0 23.466667 19.2 42.666667 42.666667 42.666666h426.666667c23.466667 0 42.666667-19.2 42.666666-42.666666v-42.666667h42.666667c46.933333 0 85.333333-38.4 85.333333-85.333333V277.333333c0-46.933333-38.4-85.333333-85.333333-85.333333zM405.333333 746.666667c0 17.066667-14.933333 32-32 32S341.333333 763.733333 341.333333 746.666667v-42.666667c0-17.066667 14.933333-32 32-32s32 14.933333 32 32v42.666667z m106.666667 0c0 17.066667-14.933333 32-32 32S448 763.733333 448 746.666667v-42.666667c0-17.066667 14.933333-32 32-32s32 14.933333 32 32v42.666667z m0-170.666667c-17.066667 0-32-14.933333-32-32 0-12.8 8.533333-23.466667 19.2-29.866667 2.133333 0 4.266667-2.133333 4.266667-2.133333h12.8c2.133333 0 4.266667 0 4.266666 2.133333 10.666667 4.266667 19.2 17.066667 19.2 29.866667 4.266667 17.066667-10.666667 32-27.733333 32z m106.666667 170.666667c0 17.066667-14.933333 32-32 32S554.666667 763.733333 554.666667 746.666667v-42.666667c0-17.066667 14.933333-32 32-32s32 14.933333 32 32v42.666667z m-32-245.333334c-8.533333 0-17.066667-4.266667-23.466667-8.533333-12.8-12.8-32-21.333333-53.333333-21.333333s-38.4 8.533333-53.333334 23.466666c-6.4 6.4-12.8 8.533333-23.466666 8.533334-17.066667 0-32-14.933333-32-32 0-8.533333 4.266667-17.066667 8.533333-23.466667 25.6-25.6 59.733333-40.533333 98.133333-40.533333s72.533333 14.933333 98.133334 40.533333c6.4 6.4 8.533333 12.8 8.533333 21.333333 4.266667 17.066667-10.666667 32-27.733333 32z m53.333333-85.333333C608 384 561.066667 362.666667 512 362.666667s-96 21.333333-128 53.333333c-6.4 6.4-14.933333 10.666667-23.466667 10.666667-17.066667 0-32-14.933333-32-32 0-8.533333 4.266667-17.066667 10.666667-23.466667C384 326.4 443.733333 298.666667 512 298.666667c66.133333 0 125.866667 25.6 168.533333 68.266666l2.133334 2.133334c4.266667 6.4 8.533333 12.8 8.533333 21.333333 0 17.066667-14.933333 32-32 32-6.4 2.133333-12.8-2.133333-19.2-6.4zM725.333333 746.666667c0 17.066667-14.933333 32-32 32S661.333333 763.733333 661.333333 746.666667v-42.666667c0-17.066667 14.933333-32 32-32s32 14.933333 32 32v42.666667z" p-id="20443" fill="#ffffff"></path></svg>