<svg t="1694250787164" class="icon" viewBox="0 0 1024 1024" version="1.1" xmlns="http://www.w3.org/2000/svg" p-id="5858" width="128" height="128"><path d="M246.6 0v1024" fill="#ffffff" p-id="5859"></path><path d="M121.8 0h19.2v1023.6H121.8z" fill="#ffffff" p-id="5860"></path><path d="M141 0h19.2v1023.6H141z" fill="#ffffff" p-id="5861"></path><path d="M160.2 0h19.2v1023.6H160.2z" fill="#ffffff" p-id="5862"></path><path d="M179.4 0h19.2v1023.6h-19.2z" fill="#ffffff" p-id="5863"></path><path d="M198.6 0H217.8v1023.6h-19.2z" fill="#ffffff" p-id="5864"></path><path d="M217.8 0h19.2v1023.6H217.8z" fill="#ffffff" p-id="5865"></path><path d="M237 0h19.2v1023.6h-19.2z" fill="#ffffff" p-id="5866"></path><path d="M256.2 0h19.2v1023.6h-19.2z" fill="#ffffff" p-id="5867"></path><path d="M275.4 0h19.2v1023.6h-19.2z" fill="#ffffff" p-id="5868"></path><path d="M294.6 0H313.8v1023.6h-19.2z" fill="#ffffff" p-id="5869"></path><path d="M313.8 0h19.2v1023.6H313.8zM352.2 0h19.2v1023.6h-19.2z" fill="#ffffff" p-id="5870"></path><path d="M333 0h19.2v1023.6h-19.2z" fill="#ffffff" p-id="5871"></path><path d="M529 406v-19.2h54.8c7.2 0.4 14.8 0.4 22.4 0.8 3.6 0.4 7.6 0.4 11.2 0.8l11.2 1.6c7.6 1.2 14.8 2 22 3.6 7.2 1.6 14.8 3.6 22 5.6 58 16.8 110.4 50 150 95.2 2.4 2.8 5.2 5.6 7.6 8.4l6.8 8.8c4.4 6 9.2 12 13.2 18.4 4 6.4 8 12.8 11.6 19.2 2 3.2 3.6 6.4 5.2 10l4.8 10 4.8 10c1.6 3.6 2.8 6.8 4 10.4 2.8 7.2 5.2 14 7.6 21.2 4 14.4 8 29.2 10 44l1.6 11.2c0.4 3.6 1.2 7.6 1.2 11.2 0.4 7.6 0.8 14.8 1.2 22.4v11.2l-0.4 11.2c-0.4 7.6-0.8 14.8-2 22.4-1.2 7.6-2.4 14.8-3.6 22.4-1.6 7.2-3.6 14.8-5.2 22l-2.8 10.8-3.6 10.8c-2.8 7.2-5.2 14-8 21.2-12 27.6-28 53.2-46.8 76.4-19.2 22.8-41.6 43.2-66.4 60.4-24.8 16.4-52 30.4-80.8 39.6-7.2 2.4-14.4 4-21.6 6l-10.8 2.8c-3.6 0.8-7.2 1.2-11.2 2-7.6 1.2-14.8 2.4-22.4 3.2-7.6 0.4-14.8 0.8-22.4 1.2l-5.6 0.4H371.4v-19.2h216.4l5.2-0.4c7.2-0.4 14-0.8 21.2-1.2 6.8-0.8 14-2 20.8-3.2 3.6-0.8 6.8-1.2 10.4-2l10.4-2.4c6.8-2 13.6-3.2 20.4-5.6 26.8-8.8 52.4-21.6 75.6-37.2 23.2-16 44-35.2 62.4-56.8 17.6-22 32.8-46 44-72 2.8-6.4 5.2-13.2 7.6-19.6l3.6-10 2.8-10.4c1.6-6.8 3.6-13.6 4.8-20.4 1.2-6.8 2.4-14 3.2-20.8 1.2-6.8 1.2-14 1.6-20.8l0.4-10.4v-5.2-5.2c-0.4-7.2-0.8-14-1.2-21.2 0-3.6-0.4-6.8-1.2-10.4l-1.6-10.4c-1.6-14-5.6-27.6-9.2-41.2-2-6.8-4.8-13.2-7.2-20-1.2-3.2-2.4-6.8-4-10l-4.4-9.6-4.8-9.6c-1.6-3.2-3.2-6.4-4.8-9.2l-10.8-18c-3.6-6-8-11.6-12.4-17.2l-6.4-8.4c-2.4-2.8-4.8-5.2-6.8-8-37.2-42.4-86.4-73.6-140.8-89.2-6.8-2-13.6-3.6-20.4-5.2-6.8-1.6-14-2.4-20.8-3.6l-10.4-1.6c-3.6-0.4-6.8-0.4-10.4-0.8-6.8-0.4-14-0.8-20.8-0.8h-54.8z" fill="#ffffff" p-id="5872"></path><path d="M529 425.2v-19.2h54.8c6.8 0.4 14 0.4 20.8 0.8 3.6 0.4 7.2 0.4 10.4 0.8l10.4 1.6c6.8 1.2 14 2 20.8 3.6 6.8 1.6 13.6 3.6 20.4 5.2 54.4 15.6 104 47.2 140.8 89.2 2.4 2.8 4.8 5.2 6.8 8l6.4 8.4c4 5.6 8.4 11.2 12.4 17.2l10.8 18c2 2.8 3.6 6 4.8 9.2l4.8 9.6 4.4 9.6c1.6 3.2 2.4 6.4 4 10 2.4 6.8 4.8 13.2 7.2 20 3.6 13.6 7.6 27.2 9.2 41.2l1.6 10.4c0.4 3.6 0.8 6.8 1.2 10.4 0.4 7.2 0.8 14 1.2 21.2v10.4l-0.4 10.4c-0.4 7.2-0.4 14-1.6 20.8-0.8 6.8-2 14-3.2 20.8-1.2 6.8-3.2 13.6-4.8 20.4l-2.8 10.4-3.6 10c-2.4 6.8-4.8 13.2-7.6 19.6-11.2 26-26.4 50-44 72-18 21.6-39.2 40.4-62.4 56.8-23.6 15.6-48.8 28.4-75.6 37.2-6.8 2.4-13.6 4-20.4 5.6l-10.4 2.4c-3.6 0.8-6.8 1.2-10.4 2-6.8 1.2-14 2-20.8 3.2-6.8 0.4-14 0.8-21.2 1.2l-5.2 0.4H371.4v-19.2h216l4.8-0.4c6.4-0.4 13.2-0.8 19.6-1.2 6.4-0.8 13.2-2 19.6-2.8 3.2-0.4 6.4-0.8 9.6-1.6l9.6-2.4c6.4-1.6 12.8-3.2 19.2-5.2 25.2-8 48.8-20 70.8-34.8 21.6-15.2 41.2-32.8 58.4-52.8 16.4-20.4 30.8-43.2 41.2-67.2 2.8-6 4.8-12.4 7.2-18.4l3.2-9.2 2.4-9.6c1.6-6.4 3.6-12.8 4.8-19.2 1.2-6.4 2-13.2 3.2-19.6 1.2-6.4 1.2-13.2 1.6-19.6l0.4-10v-4.8-4.8c-0.4-6.4-0.4-13.2-0.8-19.6 0-3.2-0.4-6.4-1.2-10l-1.6-9.6c-1.6-13.2-5.2-26-8.8-38.8-2-6.4-4.4-12.4-6.8-18.8-1.2-3.2-2.4-6.4-3.6-9.2l-4.4-8.8-4.4-8.8c-1.6-2.8-2.8-6-4.8-8.8-3.2-5.6-6.8-11.2-10.4-16.8-3.6-5.6-7.6-10.8-11.6-16l-6-8c-2-2.4-4.4-4.8-6.4-7.2-34.8-39.6-81.2-68.8-131.6-83.6l-19.2-4.8c-6.4-1.6-12.8-2.4-19.6-3.2l-9.6-1.6c-3.2-0.4-6.4-0.4-10-0.8-6.4-0.4-13.2-0.8-19.6-0.8h-53.6z" fill="#ffffff" p-id="5873"></path><path d="M529 444.4v-19.2h54.8c6.4 0.4 13.2 0.4 19.6 0.8 3.2 0.4 6.4 0.4 10 0.8l9.6 1.6c6.4 1.2 13.2 2 19.6 3.2l19.2 4.8c50.8 14.8 97.2 44 131.6 83.6 2 2.4 4.4 4.8 6.4 7.2l6 8c4 5.2 8 10.4 11.6 16 3.6 5.6 6.8 11.2 10.4 16.8 1.6 2.8 3.2 5.6 4.8 8.8l4.4 8.8 4.4 8.8c1.2 2.8 2.4 6 3.6 9.2 2.4 6 4.8 12.4 6.8 18.8 3.2 12.8 7.2 25.6 8.8 38.8l1.6 9.6c0.4 3.2 0.8 6.4 1.2 10 0.4 6.4 0.8 13.2 0.8 19.6v9.6l-0.4 10c-0.4 6.4-0.4 13.2-1.6 19.6-0.8 6.4-2 13.2-3.2 19.6-1.2 6.4-3.2 12.8-4.8 19.2l-2.4 9.6-3.2 9.2c-2.4 6-4.4 12.4-7.2 18.4-10.4 24.4-24.8 46.8-41.2 67.2-17.2 20-36.4 38-58.4 52.8-22 14.4-45.6 26.4-70.8 34.8-6.4 2.4-12.8 3.6-19.2 5.2l-9.6 2.4c-3.2 0.8-6.4 1.2-9.6 1.6-6.4 1.2-13.2 2-19.6 2.8-6.4 0.4-13.2 0.8-19.6 1.2l-4.8 0.4H371.4v-19.2h220.4l18.4-0.8c6-0.8 12-1.6 18.4-2.8 3.2-0.4 6-0.8 9.2-1.6l8.8-2.4c6-1.6 12-2.8 17.6-4.8 23.6-7.6 45.6-18.8 66-32.4 20-14 38.4-30.8 54.4-49.2 15.2-19.2 28.4-40 38.4-62.8 2.4-5.6 4.4-11.6 6.4-17.2l3.2-8.8 2.4-8.8c1.6-6 3.2-12 4.4-18l2.8-18.4c1.2-6 1.2-12 1.6-18.4l0.4-9.2v-4.4-4.4l-0.8-18.4c0-3.2-0.4-6-0.8-9.2l-1.2-9.2c-1.6-12.4-5.2-24-8-36-2-6-4-11.6-6.4-17.2-1.2-2.8-2-6-3.2-8.4l-4-8.4-4-8.4c-1.2-2.8-2.8-5.6-4.4-8l-9.6-15.6c-3.2-5.2-7.2-10-10.8-14.8l-5.6-7.2c-2-2.4-4-4.4-6-6.8-32.4-36.8-75.6-64-122.8-78l-18-4.4c-6-1.2-12-2-18-3.2l-9.2-1.2c-3.2-0.4-6-0.4-9.2-0.4-6-0.4-12.4-0.8-18.4-0.8h-54.8z" fill="#ffffff" p-id="5874"></path><path d="M529 463.6v-19.2h54.8c6 0.4 12 0.4 18.4 0.8 3.2 0 6 0.4 9.2 0.4l9.2 1.2c6 0.8 12 1.6 18 3.2l18 4.4c47.2 13.6 90.4 40.8 122.8 78 2 2.4 4 4.4 6 6.8l5.6 7.2c3.6 4.8 7.6 9.6 10.8 14.8l9.6 15.6c1.6 2.4 2.8 5.2 4.4 8l4 8.4 4 8.4c1.2 2.8 2.4 5.6 3.2 8.4 2 5.6 4.4 11.6 6.4 17.2 3.2 12 6.8 23.6 8 36l1.2 9.2c0.4 3.2 0.8 6 0.8 9.2l0.8 18.4v8.8l-0.4 9.2c-0.4 6-0.4 12.4-1.6 18.4l-2.8 18.4c-1.2 6-2.8 12-4.4 18l-2.4 8.8-3.2 8.8c-2 5.6-4 11.6-6.4 17.2-10 22.4-23.2 43.6-38.4 62.8-16 18.8-34 35.2-54.4 49.2-20.4 13.6-42.4 24.8-66 32.4-5.6 2-12 3.2-17.6 4.8l-8.8 2.4c-2.8 0.8-6 1.2-9.2 1.6-6 0.8-12 2-18.4 2.8l-18.4 0.8H371.4v-19.2h211.6c2.4 0 5.6-0.4 8.4-0.4l16.8-0.8 16.8-2.4c2.8-0.4 5.6-0.8 8.4-1.6l8.4-2c5.6-1.6 11.2-2.8 16.4-4.4 21.6-7.2 42-17.6 61.2-30 18.8-12.8 35.6-28.4 50.4-45.6 14.4-17.6 26.4-37.2 35.6-58 18-42 24-88.8 16.8-133.6-1.2-11.2-4.8-22.4-7.6-33.2-1.6-5.2-4-10.8-5.6-16-1.2-2.8-2-5.2-3.2-8l-3.6-7.6-3.6-7.6c-1.2-2.4-2.4-5.2-4-7.6L785.8 572c-2.8-4.8-6.8-9.2-10-14l-5.2-6.8c-2-2-3.6-4.4-5.6-6.4-30-34-70-59.6-113.6-72l-16.4-4.4c-5.6-1.2-11.2-2-16.8-2.8l-8.4-1.2c-2.8-0.4-5.6-0.4-8.4-0.4l-16.8-0.8h-55.6z" fill="#ffffff" p-id="5875"></path><path d="M529 482.8v-19.2h54.8l16.8 0.8c2.8 0 5.6 0.4 8.4 0.4l8.4 1.2c5.6 0.8 11.2 1.6 16.8 2.8l16.4 4.4c43.6 12.8 83.6 38 113.6 72 2 2 4 4.4 5.6 6.4l5.2 6.8c3.2 4.4 6.8 8.8 10 14l8.8 14.4c1.6 2.4 2.8 4.8 4 7.6l3.6 7.6 3.6 7.6c1.2 2.4 2 5.2 3.2 8 2 5.2 4 10.8 5.6 16 2.8 11.2 6 22 7.6 33.2 7.6 44.8 1.2 91.6-16.8 133.6-9.2 20.8-21.2 40.4-35.6 58-14.8 17.2-31.6 32.8-50.4 45.6-19.2 12.4-39.6 22.8-61.2 30-5.2 2-10.8 3.2-16.4 4.4l-8.4 2c-2.8 0.8-5.6 0.8-8.4 1.6l-16.8 2.4-16.8 0.8c-2.8 0-6 0.4-8.4 0.4H371.4v-19.2h211.6c2.4 0 5.2-0.4 7.6-0.4l15.6-0.8 15.6-2.4c2.4-0.4 5.2-0.8 7.6-1.2l7.6-2c5.2-1.2 10.4-2.4 15.2-4 20-6.4 38.8-16 56.4-27.6 17.2-12 32.8-26 46.4-42 13.2-16.4 24.4-34 32.8-53.6 16.4-38.4 22-81.6 15.2-122.8-1.2-10.4-4.4-20.4-6.8-30.8-1.6-4.8-3.6-10-5.2-14.8-0.8-2.4-1.6-4.8-2.8-7.2l-3.2-7.2-3.6-7.2c-1.2-2.4-2.4-4.8-3.6-6.8l-8-13.6c-2.8-4.4-6-8.4-9.2-12.8l-4.8-6.4c-1.6-2-3.6-4-5.2-6-27.6-31.6-64.4-54.8-104.8-66.4l-15.2-4c-5.2-1.2-10.4-1.6-15.6-2.4l-7.6-1.2c-2.4-0.4-5.2-0.4-8-0.4l-15.6-0.8h-54.8z" fill="#ffffff" p-id="5876"></path><path d="M529 502v-19.2h54.8l15.6 0.8c2.8 0 5.2 0.4 8 0.4l7.6 1.2 15.6 2.4 15.2 4c40.4 11.6 77.2 34.8 104.8 66.4 1.6 2 3.6 4 5.2 6l4.8 6.4c3.2 4.4 6.4 8.4 9.2 12.8l8 13.6c1.6 2.4 2.4 4.4 3.6 6.8l3.6 7.2 3.2 7.2c1.2 2.4 2 4.8 2.8 7.2 1.6 4.8 3.6 10 5.2 14.8 2.4 10 5.6 20.4 6.8 30.8 6.8 41.2 1.2 84.4-15.2 122.8-8.4 19.2-19.6 37.2-32.8 53.6-13.6 16-29.2 30-46.4 42-17.6 11.6-36.4 21.2-56.4 27.6-4.8 1.6-10 2.8-15.2 4l-7.6 2c-2.4 0.8-5.2 0.8-7.6 1.2l-15.6 2.4-15.6 0.8c-2.4 0-5.2 0.4-7.6 0.4H371.4v-19.2h211.6c2.4 0 4.8-0.4 7.2-0.4l14.4-0.8 14-2 7.2-1.2 6.8-1.6c4.8-1.2 9.2-2 14-4 18.4-6 35.2-14.8 51.2-25.2 15.6-10.8 30-24 42.4-38.4 12-14.8 22-31.2 30-48.8 14.8-35.2 20.4-74.4 14-112.4-1.2-9.6-4-18.8-6.4-28-1.6-4.4-3.2-8.8-4.8-13.6-0.8-2.4-1.6-4.4-2.4-6.8l-3.2-6.4-3.2-6.4c-1.2-2-2-4.4-3.2-6.4l-7.6-12.4c-2.4-4-5.6-7.6-8.4-11.6l-4.4-5.6-4.8-5.2c-25.2-28.8-58.8-50-95.6-60.8l-14-3.6c-4.8-1.2-9.6-1.6-14-2.4l-7.2-1.2c-2.4-0.4-4.8-0.4-7.2-0.4l-14.4-0.8h-54.4z" fill="#ffffff" p-id="5877"></path><path d="M529 521.2v-19.2h54.8l14.4 0.8c2.4 0 4.8 0 7.2 0.4l7.2 1.2c4.8 0.8 9.6 1.2 14 2.4l14 3.6c36.8 10.8 70.4 32 95.6 60.8l4.8 5.2 4.4 5.6c2.8 4 6 7.6 8.4 11.6l7.6 12.4c1.2 2 2.4 4 3.2 6.4l3.2 6.4 3.2 6.4c1.2 2 1.6 4.4 2.4 6.8 1.6 4.4 3.2 8.8 4.8 13.6 2.4 9.2 5.2 18.4 6.4 28 6.4 37.6 0.8 77.2-14 112.4-7.6 17.6-18 34-30 48.8-12.4 14.4-26.8 27.6-42.4 38.4-16 10.4-33.2 19.2-51.2 25.2-4.4 1.6-9.2 2.4-14 4l-6.8 1.6-7.2 1.2-14 2-14.4 0.8c-2.4 0-4.8 0.4-7.2 0.4h-212v-19.2h211.6c2.4 0 4.4-0.4 6.4-0.4l12.8-0.8 12.8-2c2-0.4 4.4-0.4 6.4-1.2l6.4-1.6c4-1.2 8.4-2 12.4-3.6 16.4-5.2 32-13.2 46.4-22.8 14.4-10 27.2-21.6 38.4-34.8 10.8-13.6 20-28.4 27.2-44 13.6-32 18.4-67.6 12.8-101.6-0.8-8.8-3.6-16.8-5.6-25.2-1.2-4-2.8-8-4.4-12.4-0.8-2-1.2-4-2.4-6l-2.8-6-2.8-6c-0.8-2-2-4-3.2-5.6l-6.8-11.2c-2.4-3.6-5.2-6.8-7.6-10.4l-4-5.2-4.4-4.8c-22.8-26-53.2-45.2-86.4-54.8l-12.4-3.2c-4.4-0.8-8.4-1.2-12.8-2l-6.4-0.8c-2-0.4-4.4-0.4-6.4-0.4l-12.8-0.8h-54.8z" fill="#ffffff" p-id="5878"></path><path d="M529 540.4v-19.2h54.8l12.8 0.8c2 0 4.4 0 6.4 0.4l6.4 0.8c4.4 0.8 8.4 1.2 12.8 2l12.4 3.2c33.2 9.6 63.6 28.8 86.4 54.8l4.4 4.8 4 5.2c2.4 3.6 5.2 6.8 7.6 10.4l6.8 11.2c1.2 2 2 3.6 3.2 5.6l2.8 6 2.8 6 2.4 6c1.6 4 3.2 8 4.4 12.4 2 8.4 4.8 16.8 5.6 25.2 5.6 34.4 0.8 70-12.8 101.6-6.8 16-16.4 30.4-27.2 44-11.2 13.2-24 24.8-38.4 34.8-14.4 9.6-30 17.6-46.4 22.8-4 1.6-8.4 2.4-12.4 3.6l-6.4 1.6c-2 0.4-4.4 0.8-6.4 1.2l-12.8 2-12.8 0.8c-2 0-4.4 0.4-6.4 0.4H371.4v-19.2h211.6c2 0 4-0.4 6-0.4l11.6-0.4 11.6-1.6c2-0.4 4-0.4 5.6-0.8l5.6-1.6c3.6-1.2 7.6-1.6 11.2-3.2 14.8-4.8 28.8-12 41.6-20.4 12.8-8.8 24.4-19.6 34.4-31.2 9.6-12 18-25.2 24.4-39.6 12-28.4 16.4-60.4 11.2-91.2-0.8-7.6-3.2-15.2-5.2-22.8l-4-10.8c-0.8-2-1.2-3.6-2-5.6l-2.4-5.2-2.4-5.2c-0.8-1.6-1.6-3.6-2.8-5.2l-6-10c-2-3.2-4.4-6.4-6.8-9.6l-3.6-4.8-4-4.4c-20.4-23.6-47.6-40.4-77.6-49.2l-11.2-2.8c-3.6-0.8-7.6-1.2-11.6-2l-5.6-0.8c-2 0-4 0-6-0.4l-11.6-0.8h-54.4z" fill="#ffffff" p-id="5879"></path><path d="M529 559.6v-19.2h54.8l11.6 0.8c2 0 4 0 6 0.4l5.6 0.8c4 0.8 7.6 1.2 11.6 2l11.2 2.8c29.6 8.8 57.2 25.6 77.6 49.2l4 4.4 3.6 4.8c2.4 3.2 4.8 6 6.8 9.6l6 10c1.2 1.6 2 3.2 2.8 5.2l2.4 5.2 2.4 5.2c0.8 1.6 1.2 3.6 2 5.6l4 10.8c1.6 7.6 4.4 14.8 5.2 22.8 5.2 30.8 0.8 62.8-11.2 91.2-6.4 14.4-14.4 27.2-24.4 39.6-10 11.6-21.6 22.4-34.4 31.2-13.2 8.4-26.8 15.6-41.6 20.4-3.6 1.2-7.6 2-11.2 3.2l-5.6 1.6c-2 0.4-4 0.8-5.6 0.8l-11.6 1.6-11.6 0.4c-2 0-3.6 0.4-6 0.4h-212v-19.2h211.6c2 0 3.6-0.4 5.2-0.4l10.4-0.4 10-1.6c1.6-0.4 3.6-0.4 5.2-0.8l4.8-1.2c3.2-0.8 6.8-1.6 10-2.8 13.2-4.4 25.2-10.4 36.8-18 11.2-8 21.2-17.2 30.4-27.6 8.4-10.8 16-22.4 21.2-34.8 1.6-3.2 2.4-6.4 3.6-9.6l2-4.8 1.2-4.8c0.8-3.2 2-6.4 2.4-10l1.6-10c0.8-3.2 0.8-6.8 0.8-10.4l0.4-5.2v-2.4-2.4l-0.4-10.4c0-1.6-0.4-3.6-0.4-5.2l-0.8-5.2c-0.8-6.8-2.8-13.2-4.4-20l-3.6-9.6c-0.8-1.6-1.2-3.2-1.6-4.8l-2.4-4.8-2.4-4.8c-0.8-1.6-1.6-3.2-2.4-4.4l-5.2-8.8c-1.6-2.8-4-5.6-6-8.4l-3.2-4-3.6-3.6c-18-20.8-42.4-36-68.4-43.6l-10-2.4c-3.2-0.8-6.8-1.2-10-1.6l-5.2-0.8c-1.6 0-3.6 0-5.2-0.4l-10.4-0.4h-54.4z" fill="#ffffff" p-id="5880"></path><path d="M529 578.8v-19.2h54.8l10.4 0.4c1.6 0 3.6 0 5.2 0.4l5.2 0.8c3.2 0.4 6.8 0.8 10 1.6l10 2.4c26 7.6 50.4 22.8 68.4 43.6l3.6 3.6 3.2 4c2 2.8 4.4 5.2 6 8.4l5.2 8.8c0.8 1.6 1.6 2.8 2.4 4.4l2.4 4.8 2.4 4.8c0.8 1.6 1.2 3.2 1.6 4.8l3.6 9.6c1.6 6.8 3.6 13.2 4.4 20l0.8 5.2c0.4 1.6 0.4 3.2 0.4 5.2l0.4 10.4v4.8l-0.4 5.2c-0.4 3.6 0 6.8-0.8 10.4l-1.6 10c-0.8 3.2-1.6 6.8-2.4 10l-1.2 4.8-2 4.8c-1.2 3.2-2 6.4-3.6 9.6-5.6 12.4-12.8 24-21.2 34.8-8.8 10.4-19.2 19.6-30.4 27.6-11.6 7.2-23.6 13.6-36.8 18-3.2 1.2-6.8 1.6-10 2.8l-4.8 1.2c-1.6 0.4-3.2 0.4-5.2 0.8l-10 1.6-10.4 0.4c-2 0-3.2 0.4-5.2 0.4h-212v-19.2h216.4c2.8 0 6-0.4 8.8-0.4 2.8-0.4 6-0.8 8.8-1.6 1.6-0.4 2.8-0.4 4.4-0.8l4.4-1.2c2.8-0.8 6-1.2 8.4-2.4 11.2-3.6 22-9.2 32-15.6 9.6-6.8 18.4-14.8 26.4-24 7.2-9.6 13.6-19.6 18.4-30.4 1.2-2.8 2-5.6 3.2-8.4l1.6-4 1.2-4.4c0.8-2.8 1.6-5.6 2-8.8 0.4-2.8 0.8-6 1.2-8.8 0.8-2.8 0.4-6 0.8-8.8l0.4-4.4v-2.4-2.4c-0.4-2.8-0.4-6-0.4-8.8 0-1.6 0-2.8-0.4-4.4l-0.8-4.4c-0.4-6-2.4-11.6-3.6-17.2l-3.2-8.4c-0.4-1.2-0.8-2.8-1.6-4l-2-4-2-4c-0.8-1.2-1.2-2.8-2-4-1.6-2.4-3.2-5.2-4.8-7.6-1.6-2.4-3.6-4.8-5.2-7.2l-2.8-3.6-3.2-3.2c-7.6-9.2-17.2-16.8-27.2-23.2l-7.6-4.8c-2.8-1.2-5.2-2.4-8-4-2.4-1.6-5.6-2.4-8.4-3.2-2.8-0.8-5.6-2.4-8.4-2.8l-8.4-2.4c-2.8-0.8-6-0.8-8.8-1.2l-4.4-0.8h-4.4c-3.2 0-6-0.4-9.2-0.4h-54z" fill="#ffffff" p-id="5881"></path><path d="M529 598v-19.2h54.8c3.2 0.4 6 0.4 9.2 0.4h4.4l4.4 0.8c2.8 0.4 6 0.8 8.8 1.2l8.4 2.4c2.8 0.4 5.6 2 8.4 2.8 2.8 1.2 5.6 1.6 8.4 3.2 2.8 1.2 5.2 2.4 8 4l7.6 4.8c10 6.4 19.6 14 27.2 23.2l3.2 3.2 2.8 3.6c1.6 2.4 3.6 4.8 5.2 7.2 1.6 2.4 3.2 5.2 4.8 7.6 0.8 1.2 1.6 2.4 2 4l2 4 2 4c0.8 1.2 1.2 2.8 1.6 4l3.2 8.4c1.2 6 3.2 11.2 3.6 17.2l0.8 4.4c0.4 1.6 0.4 2.8 0.4 4.4 0 2.8 0.4 6 0.4 8.8v4.8l-0.4 4.4c-0.4 2.8 0 6-0.8 8.8-0.4 2.8-0.8 6-1.2 8.8-0.4 2.8-1.6 5.6-2 8.8l-1.2 4.4-1.6 4c-1.2 2.8-2 5.6-3.2 8.4-4.8 10.8-11.2 20.8-18.4 30.4-8 9.2-16.8 17.2-26.4 24-10 6.4-20.4 12-32 15.6-2.8 1.2-5.6 1.6-8.4 2.4l-5.2 0.8c-1.6 0.4-2.8 0.4-4.4 0.8-2.8 0.4-6 0.8-8.8 1.6-2.8 0-6 0-8.8 0.4H371.4v-19.2H587c2.4 0 5.2-0.4 7.6-0.4 2.4-0.4 4.8-0.8 7.6-1.2 1.2-0.4 2.4-0.4 3.6-0.4l3.6-1.2c2.4-0.8 4.8-0.8 7.2-2 9.6-3.2 18.4-8 26.8-13.2 8.4-6 15.6-12.8 22.4-20.4 6-8 11.6-16.4 15.6-25.6 1.2-2.4 1.6-4.8 2.8-7.2l1.2-3.6 0.8-3.6c0.4-2.4 1.2-4.8 2-7.2 0.4-2.4 0.8-4.8 1.2-7.6 0.8-2.4 0.4-5.2 0.4-7.6l0.4-4v-2-2c0-2.4-0.4-5.2-0.4-7.6 0-1.2 0-2.4-0.4-3.6l-0.8-3.6c-0.4-5.2-2.4-9.6-3.2-14.8-0.8-2.4-2-4.8-2.8-7.2l-1.2-3.6-1.6-3.2-1.6-3.6c-0.4-1.2-0.8-2.4-1.6-3.2-1.2-2-2.8-4.4-4-6.4-1.2-2-3.2-4-4.4-6l-2.4-3.2-2.8-2.8c-6.4-8-14.4-14-22.8-19.6-2-1.2-4.4-2.8-6.4-4-2.4-1.2-4.4-2-6.8-3.2-2-1.2-4.8-2-6.8-2.8-2.4-0.8-4.4-2-7.2-2.4-2.4-0.4-4.8-1.2-7.2-2-2.4-0.4-4.8-0.8-7.6-1.2l-3.6-0.8h-4c-2.4 0-4.8-0.4-7.6-0.4h-54z" fill="#ffffff" p-id="5882"></path><path d="M529 636.4v-19.2h54.8c2.4 0.4 4.4 0.4 6.4 0.4h3.2l3.2 0.4c2 0.4 4 0.4 6 0.8 2 0.8 4 1.2 6 1.6 2 0.4 4 1.2 6 2s4 1.2 5.6 2.4c2 0.8 3.6 2 5.6 2.8 1.6 1.2 3.6 2.4 5.2 3.2 6.8 4.4 13.6 9.6 18.8 16l2 2.4 1.6 2.4c1.2 1.6 2.8 3.2 3.6 4.8 0.8 2 2 3.6 3.2 5.2 0.8 0.8 1.2 1.6 1.6 2.8l1.2 2.8 1.6 2.8c0.4 0.8 0.8 2 1.2 2.8 0.8 2 1.6 4 2 5.6 0.8 4 2.4 8 2.4 12l0.4 3.2c0.4 1.2 0.4 2 0.4 3.2 0 2 0 4 0.4 6.4v3.2l-0.4 3.2c0 2 0 4.4-0.4 6.4s-0.8 4-0.8 6c-0.4 2-1.2 4-1.6 6l-0.8 3.2-1.2 2.8c-0.8 2-1.2 4-2 5.6-3.2 7.6-8 14.4-12.8 21.2-5.6 6.4-11.6 12-18.4 16.8-7.2 4.4-14.4 8.4-22 10.8-2 0.8-4 0.8-6 1.6l-2.8 0.8c-0.8 0.4-2 0.4-3.2 0.4l-6 1.2c-2 0-4 0-6.4 0.4H371.4v-19.2H591c1.6-0.4 3.2-0.8 4.8-0.8 0.8 0 1.6 0 2.4-0.4 0.8-0.4 1.6-0.4 2.4-0.8 1.6-0.4 3.2-0.4 4.8-1.2 6-2 11.6-5.2 17.2-8.4 5.2-4 10-8.4 14.4-13.2 4-5.2 7.6-10.8 10-16.4 0.8-1.6 0.8-3.2 1.6-4.4 0.4-0.8 0.8-1.6 0.8-2 0-0.8 0.4-1.6 0.4-2.4l1.2-4.8c0-1.6 0.4-3.2 0.8-4.8 0.4-1.6 0.4-3.2 0.4-4.8V705.6v-1.2c0-1.6-0.4-3.2-0.4-4.8 0-0.8 0-1.6-0.4-2.4 0-0.8-0.4-1.6-0.4-2.4 0-3.2-1.6-6-2-9.2-0.4-1.6-1.2-2.8-1.6-4.4-0.4-0.8-0.4-1.6-0.8-2.4-0.4-0.8-0.8-1.6-1.2-2-0.4-0.8-0.8-1.6-1.2-2-0.4-0.8-0.4-1.6-1.2-2-0.8-1.2-1.6-2.8-2.4-4-0.8-1.6-2-2.4-2.8-4-0.4-0.8-0.8-1.2-1.2-2l-1.6-1.6c-4-5.2-9.6-9.2-14.8-12.8-1.6-0.8-2.8-1.6-4-2.4-1.6-0.4-2.8-1.2-4.4-2-1.2-0.8-2.8-1.2-4.4-1.6-1.6-0.4-2.8-1.6-4.4-1.6l-4.8-1.2c-1.6-0.4-3.2-0.4-4.8-0.8-0.8 0-1.6-0.4-2.4-0.4h-2.4c-1.6 0-3.2 0-5.2-0.4h-54.4z" fill="#ffffff" p-id="5883"></path><path d="M529 617.2v-19.2h54.8c2.8 0.4 5.2 0.4 7.6 0.4h4l3.6 0.8c2.4 0.4 5.2 0.4 7.6 1.2 2.4 0.8 4.8 1.2 7.2 2 2.4 0.4 4.8 1.6 7.2 2.4 2.4 0.8 4.8 1.6 6.8 2.8 2.4 1.2 4.4 2.4 6.8 3.2 2 1.2 4.4 2.8 6.4 4 8.4 5.6 16.4 11.6 22.8 19.6l2.8 2.8 2.4 3.2c1.6 2 3.2 4 4.4 6 1.2 2 2.4 4.4 4 6.4 0.8 1.2 1.2 2 1.6 3.2l1.6 3.6 1.6 3.2 1.2 3.6c0.8 2.4 1.6 4.8 2.8 7.2 0.8 4.8 2.8 9.6 3.2 14.8l0.8 3.6c0.4 1.2 0.4 2.4 0.4 3.6 0 2.4 0 5.2 0.4 7.6v4l-0.4 4c0 2.4 0 5.2-0.4 7.6-0.4 2.4-0.8 4.8-1.2 7.6-0.4 2.4-1.2 4.8-2 7.2l-0.8 3.6-1.2 3.6c-0.8 2.4-1.6 4.8-2.8 7.2-4 9.2-9.6 17.6-15.6 25.6-6.8 7.6-14 14.4-22.4 20.4-8.4 5.2-17.6 10-26.8 13.2-2.4 0.8-4.8 1.2-7.2 2l-3.6 1.2c-1.2 0.4-2.4 0.4-3.6 0.4-2.4 0.4-4.8 0.8-7.6 1.2-2.4 0-5.2 0-7.6 0.4H371.4v-19.2H586.6c2 0 4-0.4 6.4-0.4l6-1.2c1.2 0 2 0 3.2-0.4l2.8-0.8c2-0.8 4-0.8 6-1.6 8-2.4 15.2-6.4 22-10.8 6.8-4.8 12.8-10.4 18.4-16.8 5.2-6.8 9.6-13.6 12.8-21.2 0.8-2 1.2-4 2-5.6l1.2-2.8 0.8-3.2c0.4-2 1.2-4 1.6-6 0.4-2 0.4-4 0.8-6s0.4-4 0.4-6.4l0.4-3.2v-1.6-1.6c0-2-0.4-4-0.4-6.4 0-1.2 0-2-0.4-3.2l-0.4-3.2c0-4-2-8-2.4-12-0.8-2-1.6-3.6-2-5.6-0.4-0.8-0.4-2-1.2-2.8l-1.6-2.8-1.2-2.8c-0.4-0.8-0.8-2-1.6-2.8-1.2-1.6-2.4-3.6-3.2-5.2-1.2-2-2.4-3.2-3.6-4.8l-1.6-2.4-2-2.4c-5.2-6.4-12-11.6-18.8-16-2-1.2-3.6-2-5.2-3.2-2-0.8-3.6-1.6-5.6-2.8-1.6-1.2-4-1.6-5.6-2.4-2-0.4-3.6-1.6-6-2-2-0.4-4-0.8-6-1.6-2-0.4-4-0.4-6-0.8l-3.2-0.4h-3.2c-2 0-4-0.4-6.4-0.4h-54.8z" fill="#ffffff" p-id="5884"></path><path d="M373.4 19.2V0h154.8c6.4 0 12.8 0.4 19.2 0.8 12.8 0.4 26 2.4 38.8 4.8 6.4 0.8 12.8 2.8 19.2 4.4 6.4 1.6 12.8 3.2 18.8 5.2s12.4 4.4 18.4 6.8l9.2 3.6 8.8 4c6 2.8 12 5.6 17.6 8.8 5.6 3.2 11.2 6.4 16.8 10 11.2 6.4 21.6 14.8 32 22.4 40.8 32.8 72.8 75.6 93.6 123.6 9.6 24.4 17.6 49.6 21.2 75.6 0.8 6.4 2 12.8 2.4 19.6 0.4 6.4 0.8 12.8 1.2 19.6l0.4 9.6-0.4 9.6c-0.4 6.4-0.8 12.8-1.2 19.6-4.4 52-22.8 103.2-51.6 146.8-28.8 43.6-68.4 79.6-114.4 104.4-46 24.8-98.8 37.6-150.8 38v-19.2c48.8 0 98-12.4 141.6-35.6 43.2-23.6 80.4-57.2 107.6-98.4 26.8-40.8 44-88.8 48.4-137.6 4.4-48.8-3.2-98.4-22.4-144-19.6-45.2-49.6-85.6-88-116-9.6-7.2-19.6-15.2-30-21.2-5.2-3.2-10.4-6.4-16-9.2-5.6-2.8-11.2-5.6-16.4-8l-8.4-4-8.8-3.2c-5.6-2-11.6-4.4-17.2-6.4-6-2-12-3.2-18-4.8-6-1.6-12-3.2-18-4-12-2-24.4-4-36.4-4.4-6-0.4-12.4-0.8-18.4-0.8H373.4z" fill="#ffffff" p-id="5885"></path><path d="M373.4 38.4V19.2h154.8c6 0 12 0.4 18.4 0.8 12.4 0.4 24.4 2.4 36.4 4.4 6 0.8 12 2.4 18 4l18 4.8c6 2 11.6 4 17.2 6.4l8.8 3.2 8.4 4c5.6 2.8 11.2 5.2 16.4 8 5.2 2.8 10.4 6 16 9.2 10.8 6 20.4 13.6 30 21.2 38.4 30.8 68.4 71.2 88 116 19.2 45.6 26.8 95.6 22.4 144-4.4 48.8-21.6 96.8-48.4 137.6-27.2 40.8-64.4 74.8-107.6 98.4-43.2 23.2-92.8 35.6-141.6 35.6v-19.2c45.6 0 92-11.6 132.4-33.2 40.4-22 75.2-53.6 100.8-92 25.2-38.4 41.2-83.2 45.2-128.8 4-45.6-3.2-92.4-20.8-134.8-18.4-42.4-46.4-80-82.4-108.8-9.2-6.8-18-14-28-19.6-4.8-2.8-9.6-6-14.8-8.8l-15.6-7.6-8-3.6-8-3.2c-5.2-2-10.8-4-16.4-6-5.6-1.6-11.2-3.2-16.8-4.4-5.6-1.2-11.2-3.2-16.8-3.6-11.2-1.6-22.8-4-34-4-5.6-0.4-11.6-0.4-17.2-0.8H373.4z" fill="#ffffff" p-id="5886"></path><path d="M373.4 57.6V38.4h154.8c5.6 0 11.2 0.4 17.2 0.8 11.6 0.4 22.8 2.4 34 4 5.6 0.8 11.2 2.4 16.8 3.6 5.6 1.6 11.2 2.8 16.8 4.4 5.6 2 10.8 4 16.4 6l8 3.2 8 3.6 15.6 7.6c5.2 2.8 10 6 14.8 8.8 10 5.6 18.8 12.8 28 19.6 35.6 28.8 64 66.4 82.4 108.8 18 42.4 24.8 89.2 20.8 134.8-4 45.6-20.4 90.4-45.2 128.8-25.6 38.4-60.4 70-100.8 92-40.4 21.6-86.8 33.2-132.4 33.2v-19.2c42.8 0 85.6-10.8 123.2-31.2 37.6-20.4 70-50 94-85.6 23.2-35.6 38.4-77.2 42.4-120 3.6-42.4-2.8-86-19.6-125.6-17.2-39.2-43.2-74.4-76.8-101.2-8.4-6.4-16.8-13.2-26.4-18.4-4.4-2.8-9.2-5.6-14-8l-14.4-7.2-7.2-3.6-7.6-2.8-15.2-5.6c-5.2-1.6-10.4-2.8-15.6-4.4-5.2-1.2-10.4-2.8-15.6-3.6-10.4-1.6-21.2-3.6-32-3.6l-16-0.8H373.4z" fill="#ffffff" p-id="5887"></path><path d="M373.4 76.8v-19.2h154.8l16 0.8c10.8 0.4 21.2 2 32 3.6 5.2 0.8 10.4 2.4 15.6 3.6 5.2 1.2 10.4 2.4 15.6 4.4l15.2 5.6 7.6 2.8 7.2 3.6 14.4 7.2c4.8 2.4 9.2 5.6 14 8 9.2 5.2 17.6 12 26.4 18.4 33.2 26.8 59.6 62 76.8 101.2 16.4 39.6 23.2 83.2 19.6 125.6-3.6 42.8-18.8 84.4-42.4 120-23.6 35.6-56.4 65.2-94 85.6-38 20-80.8 30.8-123.2 31.2V560c39.6 0 79.2-10 114.4-28.8 34.8-19.2 64.8-46.4 86.8-79.2 21.6-33.2 35.6-71.6 39.2-111.2 3.2-39.2-2.8-79.6-18-116.4-16-36.4-40-69.2-71.2-94-8-6-15.6-12-24.4-17.2-4.4-2.4-8.4-5.2-12.8-7.6l-13.2-6.4-6.8-3.2-6.8-2.8-14-5.2c-4.8-1.6-9.6-2.8-14.4-4-4.8-1.2-9.6-2.8-14.4-3.2-9.6-1.6-19.6-3.2-29.6-3.6l-14.8-0.8H373.4z" fill="#ffffff" p-id="5888"></path><path d="M373.4 96v-19.2h154.8l14.8 0.8c10 0 19.6 2 29.6 3.6 4.8 0.4 9.6 2 14.4 3.2 4.8 1.2 9.6 2.4 14.4 4l14 5.2 6.8 2.8 6.8 3.2 13.2 6.4c4.4 2.4 8.4 5.2 12.8 7.6 8.8 4.8 16.4 11.2 24.4 17.2 30.8 24.8 55.2 57.6 71.2 94 15.2 36.8 21.6 76.8 18 116.4-3.6 39.6-17.6 78-39.2 111.2-22 32.8-52 60.4-86.8 79.2-35.2 18.4-74.8 28.4-114.4 28.8v-19.2c36.4 0 72.8-9.2 105.2-26.4 32-17.6 59.6-42.8 80-73.2 20-30.4 32.8-66 36-102.4 3.2-36.4-2.4-73.2-16.4-107.2-14.8-33.6-36.8-63.6-65.6-86.4-7.2-5.6-14.4-11.2-22.4-15.6-4-2.4-7.6-4.8-11.6-6.8l-12.4-6-6-2.8-6.4-2.4-12.8-4.8-13.2-3.6c-4.4-1.2-8.8-2.4-13.2-2.8-9.2-1.2-18-3.2-27.2-3.2l-13.6-0.8H373.4z" fill="#ffffff" p-id="5889"></path><path d="M373.4 115.2V96h154.8l13.6 0.8c9.2 0 18 2 27.2 3.2 4.4 0.4 8.8 2 13.2 2.8 4.4 1.2 8.8 2 13.2 3.6l12.8 4.8 6.4 2.4 6 2.8 12.4 6c4 2 8 4.8 11.6 6.8 8 4.4 15.2 10.4 22.4 15.6 28.4 22.8 50.8 52.8 65.6 86.4 14 33.6 19.6 70.8 16.4 107.2-3.2 36.4-16 71.6-36 102.4-20.4 30.4-48 55.6-80 73.2-32.4 17.2-68.8 26.4-105.2 26.4v-19.2c33.2-0.4 66.4-8.4 96-24 29.2-16 54.8-39.2 73.2-66.8 18-28 30-60 32.8-93.2 2.8-33.2-2.4-67.2-15.2-98-13.2-30.4-33.6-58-60-78.8-6.8-4.8-13.2-10.4-20.4-14.4-3.6-2-7.2-4.4-10.8-6.4l-11.2-5.6-5.6-2.8-6-2-11.6-4.4c-4-1.2-8-2-12-3.2-4-0.8-8-2.4-12-2.8-8.4-1.2-16.4-2.8-24.8-2.8l-12.4-0.8H373.4z" fill="#ffffff" p-id="5890"></path><path d="M373.4 134.4v-19.2h154.8l12.4 0.8c8.4 0 16.4 1.6 24.8 2.8 4 0.4 8 1.6 12 2.8 4 1.2 8 2 12 3.2l11.6 4.4 6 2 5.6 2.8 11.2 5.6c3.6 2 7.2 4.4 10.8 6.4 7.2 4 13.6 9.6 20.4 14.4 26 20.8 46.4 48.4 60 78.8 12.8 30.8 18 64.8 15.2 98-2.8 33.2-14.8 65.6-32.8 93.2-18.4 27.6-44 50.8-73.2 66.8-29.6 15.6-62.8 24-96 24v-19.2c30.4-0.4 60.4-8 86.8-22 26.4-14.4 49.6-35.2 66.4-60.4 16.4-25.2 27.2-54.4 29.6-84.4 2.4-30-2-60.8-13.6-88.8-12-27.6-30.4-52.4-54-71.6-6-4.4-12-9.2-18.4-12.8l-9.6-6-10-4.8-5.2-2.4-5.2-2-10.8-4c-3.6-1.2-7.2-2-10.8-2.8-3.6-0.8-7.2-2-11.2-2.4-7.6-1.2-14.8-2.8-22.4-2.8l-11.2-0.4H373.4z" fill="#ffffff" p-id="5891"></path><path d="M373.4 153.6v-19.2h154.8l11.2 0.4c7.6 0 14.8 1.6 22.4 2.8 3.6 0.4 7.2 1.6 11.2 2.4 3.6 0.8 7.2 1.6 10.8 2.8l10.8 4 5.2 2 5.2 2.4 10 4.8 9.6 6c6.8 3.6 12.4 8.4 18.4 12.8 23.6 18.8 42 44 54 71.6 11.6 28 16.4 58.4 13.6 88.8-2.8 30-13.2 59.2-29.6 84.4-16.8 25.2-39.6 46-66.4 60.4-26.8 14-56.8 21.6-86.8 22v-19.2c27.2-0.4 54-7.2 78-19.6 23.6-13.2 44.4-31.6 59.2-54 14.8-22.8 24.4-48.8 26.8-75.6 2.4-27.2-2-54.4-12.4-79.2-10.8-24.8-27.6-47.2-48.4-64-5.6-4-10.8-8.4-16.4-11.6-2.8-1.6-5.6-3.6-8.8-5.2l-9.2-4.4-4.4-2.4-4.8-1.6-9.6-3.6c-3.2-1.2-6.4-1.6-9.6-2.4-3.2-0.8-6.4-2-10-2.4-6.8-0.8-13.2-2.4-20-2.4l-10-0.4H373.4z" fill="#ffffff" p-id="5892"></path><path d="M373.4 172.8v-19.2h154.8l10 0.4c6.8 0 13.6 1.6 20 2.4 3.2 0.4 6.4 1.6 10 2.4l9.6 2.4 9.6 3.6 4.8 1.6 4.4 2.4 9.2 4.4c2.8 1.6 5.6 3.6 8.8 5.2 6 3.2 11.2 7.6 16.4 11.6 21.2 16.8 37.6 39.2 48.4 64 10.4 24.8 14.4 52.4 12.4 79.2-2.4 26.8-12 52.8-26.8 75.6-15.2 22.4-35.6 41.2-59.2 54-24 12.4-50.8 19.2-78 19.6v-19.2c24-0.4 47.6-6.4 68.8-17.2 20.8-11.6 39.2-28 52.4-48 12.8-20 21.2-42.8 23.6-66.8 2-24-1.6-48-10.8-70-9.6-21.6-24.4-41.6-42.8-56.4-4.8-3.6-9.2-7.6-14.8-10.4-2.4-1.6-5.2-3.2-7.6-4.8l-8-4-4-2-4.4-1.6-8.4-3.2c-2.8-0.8-5.6-1.6-8.8-2.4-2.8-0.8-5.6-1.6-8.8-2-6-0.8-11.6-2-17.6-2l-9.2-0.4H373.4z" fill="#ffffff" p-id="5893"></path><path d="M373.4 192v-19.2h154.8l9.2 0.4c6 0 12 1.2 17.6 2 2.8 0.4 6 1.2 8.8 2 2.8 0.8 5.6 1.2 8.8 2.4l8.4 3.2 4.4 1.6 4 2 8 4c2.8 1.6 5.2 3.2 7.6 4.8 5.2 2.8 9.6 6.8 14.8 10.4 18.8 14.8 33.2 34.8 42.8 56.4 9.2 22 12.8 46 10.8 70s-10.4 46.8-23.6 66.8c-13.2 20-31.6 36.4-52.4 48-21.2 11.2-44.8 17.2-68.8 17.2v-19.2c20.8-0.4 41.2-5.6 59.6-14.8 18-10 34-24.4 45.6-41.6 11.2-17.6 18.4-37.2 20.4-58 1.6-20.8-1.6-41.6-9.2-60.8-8.4-18.8-21.2-36-37.2-49.2-4.4-2.8-8-6.4-12.8-8.8-2.4-1.2-4.4-2.8-6.8-4-2.4-1.2-4.8-2-7.2-3.2l-3.6-1.6-3.6-1.2c-2.4-0.8-4.8-1.6-7.2-2.8-2.4-0.8-5.2-1.2-7.6-2-2.4-0.4-4.8-1.6-7.6-1.6-5.2-0.8-10-2-15.6-1.6l-8-0.4H373.4z" fill="#ffffff" p-id="5894"></path><path d="M373.4 211.2V192h154.8l8 0.4c5.2 0 10.4 1.2 15.6 1.6 2.8 0 5.2 1.2 7.6 1.6 2.4 0.8 5.2 1.2 7.6 2 2.4 0.8 4.8 2 7.2 2.8l3.6 1.2 3.6 1.6c2.4 1.2 4.8 2.4 7.2 3.2 2.4 1.2 4.4 2.8 6.8 4 4.8 2.4 8.4 6 12.8 8.8 16.4 13.2 28.8 30.4 37.2 49.2 8 19.2 11.2 40 9.2 60.8-2 20.8-9.2 40.4-20.4 58-11.6 17.2-27.6 31.6-45.6 41.6-18.4 9.6-38.8 14.8-59.6 14.8v-19.2c18-0.4 34.8-4.8 50.4-12.8 15.2-8.4 28.8-20.8 38.8-35.2 9.6-14.8 15.6-31.6 17.2-49.2 1.2-17.6-1.2-35.6-8-51.6-7.2-16-18-30.4-31.6-41.6-3.6-2.4-6.8-5.6-10.8-7.6-2-1.2-3.6-2.4-5.6-3.6-2-0.8-4-2-6-2.8l-2.8-1.6-3.2-1.2-6-2.4c-2-0.8-4.4-1.2-6.4-1.6-2-0.4-4-1.2-6.4-1.6-4.4-0.4-8.8-1.6-13.2-1.6-2.4 0-4.4-0.4-6.8-0.4H373.4z" fill="#ffffff" p-id="5895"></path><path d="M373.4 249.6v-19.2h154.8c2 0 3.6 0.4 5.6 0.4 3.6-0.4 7.2 0.8 10.8 1.2 2 0 3.6 0.8 5.2 1.2 1.6 0.4 3.6 0.8 5.2 1.2 1.6 0.8 3.2 1.2 4.8 2l2.4 0.8 2.4 1.2 4.8 2.4c1.6 0.8 3.2 2 4.4 2.8 3.2 1.6 6 4.4 8.8 6 11.2 9.2 20 21.2 26 34 5.2 13.2 7.6 27.6 6.4 42.4-1.2 14.4-6.4 28-14 40-8 12-19.2 22-31.6 29.2-12.8 6.4-26.8 10-41.6 10.4v-19.2c11.6-0.4 22.4-3.2 32.4-8 9.6-5.6 18.4-13.2 24.8-22.8 6-9.6 10-20 10.8-31.2 0.8-11.6-0.8-22.8-4.8-33.2-4.8-10-11.6-19.6-20.4-26.8-2.4-1.6-4.4-3.6-6.8-4.8l-3.6-2.4c-1.2-0.4-2.4-1.2-4-1.6l-2-1.2c-0.8 0-1.2-0.4-2-0.4-1.2-0.4-2.8-0.8-4-1.6-1.2-0.4-2.8-0.4-4-0.8-1.2-0.4-2.8-1.2-4-0.8-2.8 0-5.6-1.2-8.4-0.8-1.6 0-2.8 0-4.4-0.4H373.4z" fill="#ffffff" p-id="5896"></path><path d="M373.4 230.4v-19.2h154.8c2.4 0 4.4 0.4 6.8 0.4 4.4 0 8.8 1.2 13.2 1.6 2.4 0 4.4 0.8 6.4 1.6 2 0.4 4.4 0.8 6.4 1.6l6 2.4 3.2 1.2 2.8 1.6c2 0.8 4 2 6 2.8 2 1.2 3.6 2.4 5.6 3.6 4 2 7.2 5.2 10.8 7.6 13.6 11.2 24.4 25.6 31.6 41.6 6.4 16 9.2 34 8 51.6-1.6 17.6-8 34.4-17.2 49.2-10 14.8-23.2 26.8-38.8 35.2-15.6 8-32.8 12.4-50.4 12.8v-19.2c14.8-0.4 28.8-4 41.6-10.4 12.4-7.2 23.6-17.2 31.6-29.2 7.6-12.4 12.8-25.6 14-40 1.2-14.8-1.2-29.2-6.4-42.4-6-12.8-14.8-25.2-26-34-3.2-2-5.6-4.8-8.8-6-1.6-0.8-3.2-2-4.4-2.8l-4.8-2.4-2.4-1.2-2.4-0.8c-1.6-0.4-3.2-1.2-4.8-2-1.6-0.4-3.6-0.8-5.2-1.2-1.6-0.4-3.2-1.2-5.2-1.2-3.6-0.4-7.2-1.6-10.8-1.2-2 0-3.6-0.4-5.6-0.4H373.4z" fill="#ffffff" p-id="5897"></path></svg>